<svg xmlns="http://www.w3.org/2000/svg" xmlns:xlink="http://www.w3.org/1999/xlink" width="600" height="400" viewBox="0 0 2400 1600">
<defs>
  <clipPath id="clip130">
    <rect x="0" y="0" width="2400" height="1600"></rect>
  </clipPath>
</defs>
<path clip-path="url(#clip130)" d="M0 1600 L2400 1600 L2400 0 L0 0  Z" fill="#ffffff" fill-rule="evenodd" fill-opacity="1"></path>
<defs>
  <clipPath id="clip131">
    <rect x="480" y="0" width="1681" height="1600"></rect>
  </clipPath>
</defs>
<path clip-path="url(#clip130)" d="M147.478 1486.45 L2352.76 1486.45 L2352.76 123.472 L147.478 123.472  Z" fill="#ffffff" fill-rule="evenodd" fill-opacity="1"></path>
<defs>
  <clipPath id="clip132">
    <rect x="147" y="123" width="2206" height="1364"></rect>
  </clipPath>
</defs>
<polyline clip-path="url(#clip132)" style="stroke:#000000; stroke-linecap:round; stroke-linejoin:round; stroke-width:2; stroke-opacity:0.1; fill:none" points="185.746,1486.45 185.746,123.472 "></polyline>
<polyline clip-path="url(#clip132)" style="stroke:#000000; stroke-linecap:round; stroke-linejoin:round; stroke-width:2; stroke-opacity:0.1; fill:none" points="682.35,1486.45 682.35,123.472 "></polyline>
<polyline clip-path="url(#clip132)" style="stroke:#000000; stroke-linecap:round; stroke-linejoin:round; stroke-width:2; stroke-opacity:0.1; fill:none" points="1178.96,1486.45 1178.96,123.472 "></polyline>
<polyline clip-path="url(#clip132)" style="stroke:#000000; stroke-linecap:round; stroke-linejoin:round; stroke-width:2; stroke-opacity:0.1; fill:none" points="1675.56,1486.45 1675.56,123.472 "></polyline>
<polyline clip-path="url(#clip132)" style="stroke:#000000; stroke-linecap:round; stroke-linejoin:round; stroke-width:2; stroke-opacity:0.1; fill:none" points="2172.17,1486.45 2172.17,123.472 "></polyline>
<polyline clip-path="url(#clip130)" style="stroke:#000000; stroke-linecap:round; stroke-linejoin:round; stroke-width:4; stroke-opacity:1; fill:none" points="147.478,1486.45 2352.76,1486.45 "></polyline>
<polyline clip-path="url(#clip130)" style="stroke:#000000; stroke-linecap:round; stroke-linejoin:round; stroke-width:4; stroke-opacity:1; fill:none" points="185.746,1486.45 185.746,1467.55 "></polyline>
<polyline clip-path="url(#clip130)" style="stroke:#000000; stroke-linecap:round; stroke-linejoin:round; stroke-width:4; stroke-opacity:1; fill:none" points="682.35,1486.45 682.35,1467.55 "></polyline>
<polyline clip-path="url(#clip130)" style="stroke:#000000; stroke-linecap:round; stroke-linejoin:round; stroke-width:4; stroke-opacity:1; fill:none" points="1178.96,1486.45 1178.96,1467.55 "></polyline>
<polyline clip-path="url(#clip130)" style="stroke:#000000; stroke-linecap:round; stroke-linejoin:round; stroke-width:4; stroke-opacity:1; fill:none" points="1675.56,1486.45 1675.56,1467.55 "></polyline>
<polyline clip-path="url(#clip130)" style="stroke:#000000; stroke-linecap:round; stroke-linejoin:round; stroke-width:4; stroke-opacity:1; fill:none" points="2172.17,1486.45 2172.17,1467.55 "></polyline>
<path clip-path="url(#clip130)" d="M185.746 1517.37 Q182.134 1517.37 180.306 1520.93 Q178.5 1524.47 178.5 1531.6 Q178.5 1538.71 180.306 1542.27 Q182.134 1545.82 185.746 1545.82 Q189.38 1545.82 191.185 1542.27 Q193.014 1538.71 193.014 1531.6 Q193.014 1524.47 191.185 1520.93 Q189.38 1517.37 185.746 1517.37 M185.746 1513.66 Q191.556 1513.66 194.611 1518.27 Q197.69 1522.85 197.69 1531.6 Q197.69 1540.33 194.611 1544.94 Q191.556 1549.52 185.746 1549.52 Q179.935 1549.52 176.857 1544.94 Q173.801 1540.33 173.801 1531.6 Q173.801 1522.85 176.857 1518.27 Q179.935 1513.66 185.746 1513.66 Z" fill="#000000" fill-rule="nonzero" fill-opacity="1"></path><path clip-path="url(#clip130)" d="M677.003 1544.91 L693.323 1544.91 L693.323 1548.85 L671.378 1548.85 L671.378 1544.91 Q674.04 1542.16 678.624 1537.53 Q683.23 1532.88 684.411 1531.53 Q686.656 1529.01 687.536 1527.27 Q688.438 1525.51 688.438 1523.82 Q688.438 1521.07 686.494 1519.33 Q684.573 1517.6 681.471 1517.6 Q679.272 1517.6 676.818 1518.36 Q674.388 1519.13 671.61 1520.68 L671.61 1515.95 Q674.434 1514.82 676.888 1514.24 Q679.341 1513.66 681.378 1513.66 Q686.749 1513.66 689.943 1516.35 Q693.137 1519.03 693.137 1523.52 Q693.137 1525.65 692.327 1527.57 Q691.54 1529.47 689.434 1532.07 Q688.855 1532.74 685.753 1535.95 Q682.651 1539.15 677.003 1544.91 Z" fill="#000000" fill-rule="nonzero" fill-opacity="1"></path><path clip-path="url(#clip130)" d="M1181.96 1518.36 L1170.16 1536.81 L1181.96 1536.81 L1181.96 1518.36 M1180.74 1514.29 L1186.62 1514.29 L1186.62 1536.81 L1191.55 1536.81 L1191.55 1540.7 L1186.62 1540.7 L1186.62 1548.85 L1181.96 1548.85 L1181.96 1540.7 L1166.36 1540.7 L1166.36 1536.19 L1180.74 1514.29 Z" fill="#000000" fill-rule="nonzero" fill-opacity="1"></path><path clip-path="url(#clip130)" d="M1675.97 1529.7 Q1672.82 1529.7 1670.97 1531.86 Q1669.14 1534.01 1669.14 1537.76 Q1669.14 1541.49 1670.97 1543.66 Q1672.82 1545.82 1675.97 1545.82 Q1679.11 1545.82 1680.94 1543.66 Q1682.79 1541.49 1682.79 1537.76 Q1682.79 1534.01 1680.94 1531.86 Q1679.11 1529.7 1675.97 1529.7 M1685.25 1515.05 L1685.25 1519.31 Q1683.49 1518.48 1681.68 1518.04 Q1679.9 1517.6 1678.14 1517.6 Q1673.51 1517.6 1671.06 1520.72 Q1668.63 1523.85 1668.28 1530.17 Q1669.65 1528.15 1671.71 1527.09 Q1673.77 1526 1676.24 1526 Q1681.45 1526 1684.46 1529.17 Q1687.49 1532.32 1687.49 1537.76 Q1687.49 1543.08 1684.35 1546.3 Q1681.2 1549.52 1675.97 1549.52 Q1669.97 1549.52 1666.8 1544.94 Q1663.63 1540.33 1663.63 1531.6 Q1663.63 1523.41 1667.52 1518.55 Q1671.41 1513.66 1677.96 1513.66 Q1679.72 1513.66 1681.5 1514.01 Q1683.3 1514.36 1685.25 1515.05 Z" fill="#000000" fill-rule="nonzero" fill-opacity="1"></path><path clip-path="url(#clip130)" d="M2172.17 1532.44 Q2168.83 1532.44 2166.91 1534.22 Q2165.01 1536 2165.01 1539.13 Q2165.01 1542.25 2166.91 1544.03 Q2168.83 1545.82 2172.17 1545.82 Q2175.5 1545.82 2177.42 1544.03 Q2179.34 1542.23 2179.34 1539.13 Q2179.34 1536 2177.42 1534.22 Q2175.52 1532.44 2172.17 1532.44 M2167.49 1530.45 Q2164.48 1529.7 2162.79 1527.64 Q2161.12 1525.58 2161.12 1522.62 Q2161.12 1518.48 2164.06 1516.07 Q2167.03 1513.66 2172.17 1513.66 Q2177.33 1513.66 2180.27 1516.07 Q2183.21 1518.48 2183.21 1522.62 Q2183.21 1525.58 2181.52 1527.64 Q2179.85 1529.7 2176.86 1530.45 Q2180.24 1531.23 2182.12 1533.52 Q2184.02 1535.82 2184.02 1539.13 Q2184.02 1544.15 2180.94 1546.83 Q2177.88 1549.52 2172.17 1549.52 Q2166.45 1549.52 2163.37 1546.83 Q2160.31 1544.15 2160.31 1539.13 Q2160.31 1535.82 2162.21 1533.52 Q2164.11 1531.23 2167.49 1530.45 M2165.78 1523.06 Q2165.78 1525.75 2167.44 1527.25 Q2169.13 1528.76 2172.17 1528.76 Q2175.17 1528.76 2176.86 1527.25 Q2178.58 1525.75 2178.58 1523.06 Q2178.58 1520.38 2176.86 1518.87 Q2175.17 1517.37 2172.17 1517.37 Q2169.13 1517.37 2167.44 1518.87 Q2165.78 1520.38 2165.78 1523.06 Z" fill="#000000" fill-rule="nonzero" fill-opacity="1"></path><polyline clip-path="url(#clip132)" style="stroke:#000000; stroke-linecap:round; stroke-linejoin:round; stroke-width:2; stroke-opacity:0.1; fill:none" points="147.478,1301.07 2352.76,1301.07 "></polyline>
<polyline clip-path="url(#clip132)" style="stroke:#000000; stroke-linecap:round; stroke-linejoin:round; stroke-width:2; stroke-opacity:0.1; fill:none" points="147.478,982.541 2352.76,982.541 "></polyline>
<polyline clip-path="url(#clip132)" style="stroke:#000000; stroke-linecap:round; stroke-linejoin:round; stroke-width:2; stroke-opacity:0.1; fill:none" points="147.478,664.009 2352.76,664.009 "></polyline>
<polyline clip-path="url(#clip132)" style="stroke:#000000; stroke-linecap:round; stroke-linejoin:round; stroke-width:2; stroke-opacity:0.1; fill:none" points="147.478,345.478 2352.76,345.478 "></polyline>
<polyline clip-path="url(#clip130)" style="stroke:#000000; stroke-linecap:round; stroke-linejoin:round; stroke-width:4; stroke-opacity:1; fill:none" points="147.478,1486.45 147.478,123.472 "></polyline>
<polyline clip-path="url(#clip130)" style="stroke:#000000; stroke-linecap:round; stroke-linejoin:round; stroke-width:4; stroke-opacity:1; fill:none" points="147.478,1301.07 166.376,1301.07 "></polyline>
<polyline clip-path="url(#clip130)" style="stroke:#000000; stroke-linecap:round; stroke-linejoin:round; stroke-width:4; stroke-opacity:1; fill:none" points="147.478,982.541 166.376,982.541 "></polyline>
<polyline clip-path="url(#clip130)" style="stroke:#000000; stroke-linecap:round; stroke-linejoin:round; stroke-width:4; stroke-opacity:1; fill:none" points="147.478,664.009 166.376,664.009 "></polyline>
<polyline clip-path="url(#clip130)" style="stroke:#000000; stroke-linecap:round; stroke-linejoin:round; stroke-width:4; stroke-opacity:1; fill:none" points="147.478,345.478 166.376,345.478 "></polyline>
<path clip-path="url(#clip130)" d="M51.3625 1301.52 L81.0383 1301.52 L81.0383 1305.46 L51.3625 1305.46 L51.3625 1301.52 Z" fill="#000000" fill-rule="nonzero" fill-opacity="1"></path><path clip-path="url(#clip130)" d="M95.1586 1314.42 L111.478 1314.42 L111.478 1318.35 L89.5336 1318.35 L89.5336 1314.42 Q92.1956 1311.66 96.7789 1307.03 Q101.385 1302.38 102.566 1301.04 Q104.811 1298.51 105.691 1296.78 Q106.594 1295.02 106.594 1293.33 Q106.594 1290.58 104.649 1288.84 Q102.728 1287.1 99.6261 1287.1 Q97.4271 1287.1 94.9734 1287.87 Q92.5428 1288.63 89.7651 1290.18 L89.7651 1285.46 Q92.5891 1284.33 95.0428 1283.75 Q97.4965 1283.17 99.5335 1283.17 Q104.904 1283.17 108.098 1285.85 Q111.293 1288.54 111.293 1293.03 Q111.293 1295.16 110.483 1297.08 Q109.696 1298.98 107.589 1301.57 Q107.01 1302.24 103.909 1305.46 Q100.807 1308.65 95.1586 1314.42 Z" fill="#000000" fill-rule="nonzero" fill-opacity="1"></path><path clip-path="url(#clip130)" d="M50.9921 982.992 L80.6679 982.992 L80.6679 986.928 L50.9921 986.928 L50.9921 982.992 Z" fill="#000000" fill-rule="nonzero" fill-opacity="1"></path><path clip-path="url(#clip130)" d="M91.5706 995.886 L99.2095 995.886 L99.2095 969.52 L90.8993 971.187 L90.8993 966.928 L99.1632 965.261 L103.839 965.261 L103.839 995.886 L111.478 995.886 L111.478 999.821 L91.5706 999.821 L91.5706 995.886 Z" fill="#000000" fill-rule="nonzero" fill-opacity="1"></path><path clip-path="url(#clip130)" d="M99.5335 649.808 Q95.9224 649.808 94.0937 653.373 Q92.2882 656.915 92.2882 664.044 Q92.2882 671.151 94.0937 674.715 Q95.9224 678.257 99.5335 678.257 Q103.168 678.257 104.973 674.715 Q106.802 671.151 106.802 664.044 Q106.802 656.915 104.973 653.373 Q103.168 649.808 99.5335 649.808 M99.5335 646.104 Q105.344 646.104 108.399 650.711 Q111.478 655.294 111.478 664.044 Q111.478 672.771 108.399 677.377 Q105.344 681.961 99.5335 681.961 Q93.7234 681.961 90.6447 677.377 Q87.5892 672.771 87.5892 664.044 Q87.5892 655.294 90.6447 650.711 Q93.7234 646.104 99.5335 646.104 Z" fill="#000000" fill-rule="nonzero" fill-opacity="1"></path><path clip-path="url(#clip130)" d="M91.5706 358.823 L99.2095 358.823 L99.2095 332.457 L90.8993 334.124 L90.8993 329.864 L99.1632 328.198 L103.839 328.198 L103.839 358.823 L111.478 358.823 L111.478 362.758 L91.5706 362.758 L91.5706 358.823 Z" fill="#000000" fill-rule="nonzero" fill-opacity="1"></path><path clip-path="url(#clip130)" d="M693.745 18.8205 L693.745 41.5461 L704.035 41.5461 Q709.747 41.5461 712.866 38.5889 Q715.985 35.6318 715.985 30.163 Q715.985 24.7348 712.866 21.7777 Q709.747 18.8205 704.035 18.8205 L693.745 18.8205 M685.563 12.096 L704.035 12.096 Q714.203 12.096 719.388 16.714 Q724.613 21.2916 724.613 30.163 Q724.613 39.1155 719.388 43.6931 Q714.203 48.2706 704.035 48.2706 L693.745 48.2706 L693.745 72.576 L685.563 72.576 L685.563 12.096 Z" fill="#000000" fill-rule="nonzero" fill-opacity="1"></path><path clip-path="url(#clip130)" d="M749.891 32.4315 Q743.896 32.4315 740.412 37.1306 Q736.928 41.7891 736.928 49.9314 Q736.928 58.0738 740.371 62.7728 Q743.855 67.4314 749.891 67.4314 Q755.846 67.4314 759.33 62.7323 Q762.813 58.0333 762.813 49.9314 Q762.813 41.8701 759.33 37.1711 Q755.846 32.4315 749.891 32.4315 M749.891 26.1121 Q759.613 26.1121 765.163 32.4315 Q770.713 38.7509 770.713 49.9314 Q770.713 61.0714 765.163 67.4314 Q759.613 73.7508 749.891 73.7508 Q740.128 73.7508 734.579 67.4314 Q729.069 61.0714 729.069 49.9314 Q729.069 38.7509 734.579 32.4315 Q740.128 26.1121 749.891 26.1121 Z" fill="#000000" fill-rule="nonzero" fill-opacity="1"></path><path clip-path="url(#clip130)" d="M811.991 28.5427 L811.991 35.5912 Q808.832 33.9709 805.429 33.1607 Q802.026 32.3505 798.38 32.3505 Q792.831 32.3505 790.035 34.0519 Q787.281 35.7533 787.281 39.156 Q787.281 41.7486 789.266 43.2475 Q791.251 44.7058 797.246 46.0426 L799.798 46.6097 Q807.738 48.3111 811.06 51.4303 Q814.422 54.509 814.422 60.0587 Q814.422 66.3781 809.399 70.0644 Q804.416 73.7508 795.666 73.7508 Q792.02 73.7508 788.051 73.0216 Q784.121 72.3329 779.746 70.9151 L779.746 63.2184 Q783.878 65.3654 787.888 66.4591 Q791.899 67.5124 795.828 67.5124 Q801.094 67.5124 803.93 65.73 Q806.766 63.9071 806.766 60.6258 Q806.766 57.5877 804.7 55.9673 Q802.674 54.3469 795.747 52.8481 L793.155 52.2405 Q786.228 50.7821 783.149 47.7845 Q780.07 44.7463 780.07 39.4801 Q780.07 33.0797 784.607 29.5959 Q789.144 26.1121 797.489 26.1121 Q801.621 26.1121 805.267 26.7198 Q808.913 27.3274 811.991 28.5427 Z" fill="#000000" fill-rule="nonzero" fill-opacity="1"></path><path clip-path="url(#clip130)" d="M833.664 14.324 L833.664 27.2059 L849.017 27.2059 L849.017 32.9987 L833.664 32.9987 L833.664 57.6282 Q833.664 63.1779 835.163 64.7578 Q836.702 66.3376 841.36 66.3376 L849.017 66.3376 L849.017 72.576 L841.36 72.576 Q832.732 72.576 829.451 69.3758 Q826.17 66.1351 826.17 57.6282 L826.17 32.9987 L820.701 32.9987 L820.701 27.2059 L826.17 27.2059 L826.17 14.324 L833.664 14.324 Z" fill="#000000" fill-rule="nonzero" fill-opacity="1"></path><path clip-path="url(#clip130)" d="M897.627 48.0275 L897.627 51.6733 L863.357 51.6733 Q863.843 59.3701 867.975 63.421 Q872.147 67.4314 879.56 67.4314 Q883.854 67.4314 887.865 66.3781 Q891.916 65.3249 895.886 63.2184 L895.886 70.267 Q891.875 71.9684 887.662 72.8596 Q883.449 73.7508 879.115 73.7508 Q868.258 73.7508 861.899 67.4314 Q855.579 61.1119 855.579 50.3365 Q855.579 39.1965 861.574 32.6746 Q867.61 26.1121 877.819 26.1121 Q886.974 26.1121 892.28 32.0264 Q897.627 37.9003 897.627 48.0275 M890.174 45.84 Q890.093 39.7232 886.731 36.0774 Q883.409 32.4315 877.9 32.4315 Q871.661 32.4315 867.894 35.9558 Q864.167 39.4801 863.6 45.8805 L890.174 45.84 Z" fill="#000000" fill-rule="nonzero" fill-opacity="1"></path><path clip-path="url(#clip130)" d="M936.152 34.1734 Q934.896 33.4443 933.397 33.1202 Q931.939 32.7556 930.156 32.7556 Q923.837 32.7556 920.434 36.8875 Q917.072 40.9789 917.072 48.6757 L917.072 72.576 L909.578 72.576 L909.578 27.2059 L917.072 27.2059 L917.072 34.2544 Q919.421 30.1225 923.189 28.1376 Q926.956 26.1121 932.344 26.1121 Q933.113 26.1121 934.045 26.2337 Q934.977 26.3147 936.111 26.5172 L936.152 34.1734 Z" fill="#000000" fill-rule="nonzero" fill-opacity="1"></path><path clip-path="url(#clip130)" d="M943.97 27.2059 L951.423 27.2059 L951.423 72.576 L943.97 72.576 L943.97 27.2059 M943.97 9.54393 L951.423 9.54393 L951.423 18.9825 L943.97 18.9825 L943.97 9.54393 Z" fill="#000000" fill-rule="nonzero" fill-opacity="1"></path><path clip-path="url(#clip130)" d="M984.6 32.4315 Q978.605 32.4315 975.121 37.1306 Q971.637 41.7891 971.637 49.9314 Q971.637 58.0738 975.081 62.7728 Q978.565 67.4314 984.6 67.4314 Q990.555 67.4314 994.039 62.7323 Q997.523 58.0333 997.523 49.9314 Q997.523 41.8701 994.039 37.1711 Q990.555 32.4315 984.6 32.4315 M984.6 26.1121 Q994.323 26.1121 999.872 32.4315 Q1005.42 38.7509 1005.42 49.9314 Q1005.42 61.0714 999.872 67.4314 Q994.323 73.7508 984.6 73.7508 Q974.838 73.7508 969.288 67.4314 Q963.779 61.0714 963.779 49.9314 Q963.779 38.7509 969.288 32.4315 Q974.838 26.1121 984.6 26.1121 Z" fill="#000000" fill-rule="nonzero" fill-opacity="1"></path><path clip-path="url(#clip130)" d="M1044.07 34.1734 Q1042.81 33.4443 1041.31 33.1202 Q1039.85 32.7556 1038.07 32.7556 Q1031.75 32.7556 1028.35 36.8875 Q1024.99 40.9789 1024.99 48.6757 L1024.99 72.576 L1017.49 72.576 L1017.49 27.2059 L1024.99 27.2059 L1024.99 34.2544 Q1027.34 30.1225 1031.1 28.1376 Q1034.87 26.1121 1040.26 26.1121 Q1041.03 26.1121 1041.96 26.2337 Q1042.89 26.3147 1044.03 26.5172 L1044.07 34.1734 Z" fill="#000000" fill-rule="nonzero" fill-opacity="1"></path><path clip-path="url(#clip130)" d="M1098.88 49.7694 Q1089.84 49.7694 1086.36 51.8354 Q1082.88 53.9013 1082.88 58.8839 Q1082.88 62.8538 1085.47 65.2034 Q1088.1 67.5124 1092.6 67.5124 Q1098.8 67.5124 1102.52 63.1374 Q1106.29 58.7219 1106.29 51.4303 L1106.29 49.7694 L1098.88 49.7694 M1113.74 46.6907 L1113.74 72.576 L1106.29 72.576 L1106.29 65.6895 Q1103.74 69.8214 1099.93 71.8063 Q1096.12 73.7508 1090.61 73.7508 Q1083.65 73.7508 1079.51 69.8619 Q1075.42 65.9325 1075.42 59.3701 Q1075.42 51.7138 1080.53 47.825 Q1085.67 43.9361 1095.84 43.9361 L1106.29 43.9361 L1106.29 43.2069 Q1106.29 38.0623 1102.89 35.2672 Q1099.52 32.4315 1093.41 32.4315 Q1089.52 32.4315 1085.83 33.3632 Q1082.15 34.295 1078.74 36.1584 L1078.74 29.2718 Q1082.83 27.692 1086.68 26.9223 Q1090.53 26.1121 1094.18 26.1121 Q1104.02 26.1121 1108.88 31.2163 Q1113.74 36.3204 1113.74 46.6907 Z" fill="#000000" fill-rule="nonzero" fill-opacity="1"></path><path clip-path="url(#clip130)" d="M1152.06 9.54393 L1152.06 15.7418 L1144.94 15.7418 Q1140.92 15.7418 1139.34 17.3622 Q1137.81 18.9825 1137.81 23.1955 L1137.81 27.2059 L1150.08 27.2059 L1150.08 32.9987 L1137.81 32.9987 L1137.81 72.576 L1130.31 72.576 L1130.31 32.9987 L1123.18 32.9987 L1123.18 27.2059 L1130.31 27.2059 L1130.31 24.0462 Q1130.31 16.471 1133.84 13.0277 Q1137.36 9.54393 1145.02 9.54393 L1152.06 9.54393 Z" fill="#000000" fill-rule="nonzero" fill-opacity="1"></path><path clip-path="url(#clip130)" d="M1164.22 14.324 L1164.22 27.2059 L1179.57 27.2059 L1179.57 32.9987 L1164.22 32.9987 L1164.22 57.6282 Q1164.22 63.1779 1165.72 64.7578 Q1167.26 66.3376 1171.91 66.3376 L1179.57 66.3376 L1179.57 72.576 L1171.91 72.576 Q1163.29 72.576 1160 69.3758 Q1156.72 66.1351 1156.72 57.6282 L1156.72 32.9987 L1151.25 32.9987 L1151.25 27.2059 L1156.72 27.2059 L1156.72 14.324 L1164.22 14.324 Z" fill="#000000" fill-rule="nonzero" fill-opacity="1"></path><path clip-path="url(#clip130)" d="M1228.18 48.0275 L1228.18 51.6733 L1193.91 51.6733 Q1194.4 59.3701 1198.53 63.421 Q1202.7 67.4314 1210.11 67.4314 Q1214.41 67.4314 1218.42 66.3781 Q1222.47 65.3249 1226.44 63.2184 L1226.44 70.267 Q1222.43 71.9684 1218.22 72.8596 Q1214 73.7508 1209.67 73.7508 Q1198.81 73.7508 1192.45 67.4314 Q1186.13 61.1119 1186.13 50.3365 Q1186.13 39.1965 1192.13 32.6746 Q1198.16 26.1121 1208.37 26.1121 Q1217.53 26.1121 1222.83 32.0264 Q1228.18 37.9003 1228.18 48.0275 M1220.73 45.84 Q1220.65 39.7232 1217.28 36.0774 Q1213.96 32.4315 1208.45 32.4315 Q1202.21 32.4315 1198.45 35.9558 Q1194.72 39.4801 1194.15 45.8805 L1220.73 45.84 Z" fill="#000000" fill-rule="nonzero" fill-opacity="1"></path><path clip-path="url(#clip130)" d="M1266.71 34.1734 Q1265.45 33.4443 1263.95 33.1202 Q1262.49 32.7556 1260.71 32.7556 Q1254.39 32.7556 1250.99 36.8875 Q1247.63 40.9789 1247.63 48.6757 L1247.63 72.576 L1240.13 72.576 L1240.13 27.2059 L1247.63 27.2059 L1247.63 34.2544 Q1249.98 30.1225 1253.74 28.1376 Q1257.51 26.1121 1262.9 26.1121 Q1263.67 26.1121 1264.6 26.2337 Q1265.53 26.3147 1266.66 26.5172 L1266.71 34.1734 Z" fill="#000000" fill-rule="nonzero" fill-opacity="1"></path><path clip-path="url(#clip130)" d="M1303.37 65.6895 L1316.73 65.6895 L1316.73 19.5497 L1302.19 22.4663 L1302.19 15.0127 L1316.65 12.096 L1324.84 12.096 L1324.84 65.6895 L1338.2 65.6895 L1338.2 72.576 L1303.37 72.576 L1303.37 65.6895 Z" fill="#000000" fill-rule="nonzero" fill-opacity="1"></path><path clip-path="url(#clip130)" d="M1354.81 12.096 L1386.94 12.096 L1386.94 18.9825 L1362.31 18.9825 L1362.31 33.8088 Q1364.09 33.2012 1365.87 32.9176 Q1367.65 32.5936 1369.44 32.5936 Q1379.56 32.5936 1385.48 38.1433 Q1391.39 43.6931 1391.39 53.1722 Q1391.39 62.9348 1385.32 68.3631 Q1379.24 73.7508 1368.18 73.7508 Q1364.37 73.7508 1360.4 73.1026 Q1356.47 72.4545 1352.26 71.1582 L1352.26 62.9348 Q1355.91 64.9198 1359.8 65.892 Q1363.68 66.8642 1368.02 66.8642 Q1375.03 66.8642 1379.12 63.1779 Q1383.21 59.4916 1383.21 53.1722 Q1383.21 46.8528 1379.12 43.1664 Q1375.03 39.4801 1368.02 39.4801 Q1364.74 39.4801 1361.46 40.2093 Q1358.22 40.9384 1354.81 42.4778 L1354.81 12.096 Z" fill="#000000" fill-rule="nonzero" fill-opacity="1"></path><path clip-path="url(#clip130)" d="M1432.83 27.2059 L1440.29 27.2059 L1440.29 72.576 L1432.83 72.576 L1432.83 27.2059 M1432.83 9.54393 L1440.29 9.54393 L1440.29 18.9825 L1432.83 18.9825 L1432.83 9.54393 Z" fill="#000000" fill-rule="nonzero" fill-opacity="1"></path><path clip-path="url(#clip130)" d="M1463.26 14.324 L1463.26 27.2059 L1478.61 27.2059 L1478.61 32.9987 L1463.26 32.9987 L1463.26 57.6282 Q1463.26 63.1779 1464.75 64.7578 Q1466.29 66.3376 1470.95 66.3376 L1478.61 66.3376 L1478.61 72.576 L1470.95 72.576 Q1462.32 72.576 1459.04 69.3758 Q1455.76 66.1351 1455.76 57.6282 L1455.76 32.9987 L1450.29 32.9987 L1450.29 27.2059 L1455.76 27.2059 L1455.76 14.324 L1463.26 14.324 Z" fill="#000000" fill-rule="nonzero" fill-opacity="1"></path><path clip-path="url(#clip130)" d="M1527.22 48.0275 L1527.22 51.6733 L1492.95 51.6733 Q1493.43 59.3701 1497.57 63.421 Q1501.74 67.4314 1509.15 67.4314 Q1513.45 67.4314 1517.46 66.3781 Q1521.51 65.3249 1525.48 63.2184 L1525.48 70.267 Q1521.47 71.9684 1517.25 72.8596 Q1513.04 73.7508 1508.71 73.7508 Q1497.85 73.7508 1491.49 67.4314 Q1485.17 61.1119 1485.17 50.3365 Q1485.17 39.1965 1491.17 32.6746 Q1497.2 26.1121 1507.41 26.1121 Q1516.57 26.1121 1521.87 32.0264 Q1527.22 37.9003 1527.22 48.0275 M1519.77 45.84 Q1519.68 39.7232 1516.32 36.0774 Q1513 32.4315 1507.49 32.4315 Q1501.25 32.4315 1497.49 35.9558 Q1493.76 39.4801 1493.19 45.8805 L1519.77 45.84 Z" fill="#000000" fill-rule="nonzero" fill-opacity="1"></path><path clip-path="url(#clip130)" d="M1565.74 34.1734 Q1564.49 33.4443 1562.99 33.1202 Q1561.53 32.7556 1559.75 32.7556 Q1553.43 32.7556 1550.03 36.8875 Q1546.66 40.9789 1546.66 48.6757 L1546.66 72.576 L1539.17 72.576 L1539.17 27.2059 L1546.66 27.2059 L1546.66 34.2544 Q1549.01 30.1225 1552.78 28.1376 Q1556.55 26.1121 1561.94 26.1121 Q1562.7 26.1121 1563.64 26.2337 Q1564.57 26.3147 1565.7 26.5172 L1565.74 34.1734 Z" fill="#000000" fill-rule="nonzero" fill-opacity="1"></path><path clip-path="url(#clip130)" d="M1594.18 49.7694 Q1585.15 49.7694 1581.66 51.8354 Q1578.18 53.9013 1578.18 58.8839 Q1578.18 62.8538 1580.77 65.2034 Q1583.41 67.5124 1587.9 67.5124 Q1594.1 67.5124 1597.83 63.1374 Q1601.59 58.7219 1601.59 51.4303 L1601.59 49.7694 L1594.18 49.7694 M1609.05 46.6907 L1609.05 72.576 L1601.59 72.576 L1601.59 65.6895 Q1599.04 69.8214 1595.23 71.8063 Q1591.43 73.7508 1585.92 73.7508 Q1578.95 73.7508 1574.82 69.8619 Q1570.73 65.9325 1570.73 59.3701 Q1570.73 51.7138 1575.83 47.825 Q1580.97 43.9361 1591.14 43.9361 L1601.59 43.9361 L1601.59 43.2069 Q1601.59 38.0623 1598.19 35.2672 Q1594.83 32.4315 1588.71 32.4315 Q1584.82 32.4315 1581.14 33.3632 Q1577.45 34.295 1574.05 36.1584 L1574.05 29.2718 Q1578.14 27.692 1581.99 26.9223 Q1585.84 26.1121 1589.48 26.1121 Q1599.33 26.1121 1604.19 31.2163 Q1609.05 36.3204 1609.05 46.6907 Z" fill="#000000" fill-rule="nonzero" fill-opacity="1"></path><path clip-path="url(#clip130)" d="M1631.77 14.324 L1631.77 27.2059 L1647.13 27.2059 L1647.13 32.9987 L1631.77 32.9987 L1631.77 57.6282 Q1631.77 63.1779 1633.27 64.7578 Q1634.81 66.3376 1639.47 66.3376 L1647.13 66.3376 L1647.13 72.576 L1639.47 72.576 Q1630.84 72.576 1627.56 69.3758 Q1624.28 66.1351 1624.28 57.6282 L1624.28 32.9987 L1618.81 32.9987 L1618.81 27.2059 L1624.28 27.2059 L1624.28 14.324 L1631.77 14.324 Z" fill="#000000" fill-rule="nonzero" fill-opacity="1"></path><path clip-path="url(#clip130)" d="M1656.93 27.2059 L1664.38 27.2059 L1664.38 72.576 L1656.93 72.576 L1656.93 27.2059 M1656.93 9.54393 L1664.38 9.54393 L1664.38 18.9825 L1656.93 18.9825 L1656.93 9.54393 Z" fill="#000000" fill-rule="nonzero" fill-opacity="1"></path><path clip-path="url(#clip130)" d="M1697.56 32.4315 Q1691.56 32.4315 1688.08 37.1306 Q1684.6 41.7891 1684.6 49.9314 Q1684.6 58.0738 1688.04 62.7728 Q1691.52 67.4314 1697.56 67.4314 Q1703.51 67.4314 1707 62.7323 Q1710.48 58.0333 1710.48 49.9314 Q1710.48 41.8701 1707 37.1711 Q1703.51 32.4315 1697.56 32.4315 M1697.56 26.1121 Q1707.28 26.1121 1712.83 32.4315 Q1718.38 38.7509 1718.38 49.9314 Q1718.38 61.0714 1712.83 67.4314 Q1707.28 73.7508 1697.56 73.7508 Q1687.8 73.7508 1682.25 67.4314 Q1676.74 61.0714 1676.74 49.9314 Q1676.74 38.7509 1682.25 32.4315 Q1687.8 26.1121 1697.56 26.1121 Z" fill="#000000" fill-rule="nonzero" fill-opacity="1"></path><path clip-path="url(#clip130)" d="M1768.45 45.1919 L1768.45 72.576 L1761 72.576 L1761 45.4349 Q1761 38.994 1758.49 35.7938 Q1755.97 32.5936 1750.95 32.5936 Q1744.91 32.5936 1741.43 36.4419 Q1737.95 40.2903 1737.95 46.9338 L1737.95 72.576 L1730.45 72.576 L1730.45 27.2059 L1737.95 27.2059 L1737.95 34.2544 Q1740.62 30.163 1744.23 28.1376 Q1747.87 26.1121 1752.61 26.1121 Q1760.43 26.1121 1764.44 30.9732 Q1768.45 35.7938 1768.45 45.1919 Z" fill="#000000" fill-rule="nonzero" fill-opacity="1"></path><path clip-path="url(#clip130)" d="M1812.24 28.5427 L1812.24 35.5912 Q1809.08 33.9709 1805.68 33.1607 Q1802.28 32.3505 1798.63 32.3505 Q1793.08 32.3505 1790.28 34.0519 Q1787.53 35.7533 1787.53 39.156 Q1787.53 41.7486 1789.52 43.2475 Q1791.5 44.7058 1797.5 46.0426 L1800.05 46.6097 Q1807.99 48.3111 1811.31 51.4303 Q1814.67 54.509 1814.67 60.0587 Q1814.67 66.3781 1809.65 70.0644 Q1804.67 73.7508 1795.92 73.7508 Q1792.27 73.7508 1788.3 73.0216 Q1784.37 72.3329 1780 70.9151 L1780 63.2184 Q1784.13 65.3654 1788.14 66.4591 Q1792.15 67.5124 1796.08 67.5124 Q1801.34 67.5124 1804.18 65.73 Q1807.01 63.9071 1807.01 60.6258 Q1807.01 57.5877 1804.95 55.9673 Q1802.92 54.3469 1796 52.8481 L1793.4 52.2405 Q1786.48 50.7821 1783.4 47.7845 Q1780.32 44.7463 1780.32 39.4801 Q1780.32 33.0797 1784.86 29.5959 Q1789.39 26.1121 1797.74 26.1121 Q1801.87 26.1121 1805.52 26.7198 Q1809.16 27.3274 1812.24 28.5427 Z" fill="#000000" fill-rule="nonzero" fill-opacity="1"></path><path clip-path="url(#clip132)" d="M219.55 664.703 L229.956 640.631 L240.362 625.28 L250.768 617.811 L261.174 612.863 L271.58 607.679 L281.986 600.87 L292.392 591.605 L302.798 579.438 L313.204 564.389 L323.61 547.234 L334.016 529.632 L344.422 511.951 L354.828 492.628 L365.234 471.196 L375.64 448.9 L386.046 429.051 L396.452 416.622 L406.858 412.306 L417.264 413.149 L427.67 417.138 L438.076 423.101 L448.482 430.286 L458.888 438.156 L469.294 446.302 L479.7 454.397 L490.106 462.174 L500.512 469.411 L510.918 475.921 L521.324 481.547 L531.73 486.157 L542.136 489.638 L552.542 491.9 L562.948 492.866 L573.354 492.477 L583.76 490.691 L594.166 487.482 L604.572 482.841 L614.978 476.78 L625.384 469.335 L635.79 460.573 L646.196 450.599 L656.602 439.577 L667.008 427.755 L677.413 415.538 L687.819 403.637 L698.225 393.493 L708.631 387.85 L719.037 387.943 L729.443 392.543 L739.849 399.157 L750.255 405.301 L760.661 409.993 L771.067 413.066 L781.473 414.896 L791.879 416.529 L802.285 420.23 L812.691 430.045 L823.097 448.042 L833.503 471.005 L843.909 496.117 L854.315 521.795 L864.721 547.092 L875.127 571.366 L885.533 594.143 L895.939 615.046 L906.345 633.775 L916.751 650.089 L927.157 663.8 L937.563 674.783 L947.969 682.981 L958.375 688.454 L968.781 691.48 L979.187 692.921 L989.593 695.565 L999.999 704.482 L1010.41 716.99 L1020.81 729.532 L1031.22 743.602 L1041.62 760.901 L1052.03 780.165 L1062.44 800.203 L1072.84 820.325 L1083.25 840.13 L1093.65 859.377 L1104.06 877.916 L1114.47 895.655 L1124.87 912.539 L1135.28 928.536 L1145.68 943.633 L1156.09 957.826 L1166.5 971.121 L1176.9 983.527 L1187.31 995.056 L1197.71 1005.72 L1208.12 1015.53 L1218.53 1024.5 L1228.93 1032.63 L1239.34 1039.93 L1249.74 1046.39 L1260.15 1052.02 L1270.56 1056.81 L1280.96 1060.74 L1291.37 1063.8 L1301.77 1065.96 L1312.18 1067.19 L1322.59 1067.47 L1332.99 1066.77 L1343.4 1065.04 L1353.8 1062.24 L1364.21 1058.35 L1374.62 1053.32 L1385.02 1047.13 L1395.43 1039.78 L1405.83 1031.3 L1416.24 1021.78 L1426.64 1011.45 L1437.05 1000.9 L1447.46 991.518 L1457.86 986.49 L1468.27 988.548 L1478.67 993.768 L1489.08 997.898 L1499.49 999.097 L1509.89 996.707 L1520.3 990.561 L1530.7 980.775 L1541.11 967.735 L1551.52 952.252 L1561.92 935.901 L1572.33 921.168 L1582.73 908.497 L1593.14 895.355 L1603.55 880.265 L1613.95 863.347 L1624.36 846.491 L1634.76 833.884 L1645.17 828.795 L1655.58 829.011 L1665.98 832.164 L1676.39 836.991 L1686.79 842.815 L1697.2 849.234 L1707.61 855.982 L1718.01 862.877 L1728.42 869.787 L1738.82 876.615 L1749.23 883.291 L1759.64 889.763 L1770.04 895.994 L1780.45 901.958 L1790.85 907.639 L1801.26 913.027 L1811.67 918.119 L1822.07 922.914 L1832.48 927.418 L1842.88 931.637 L1853.29 935.578 L1863.7 939.254 L1874.1 942.673 L1884.51 945.849 L1894.91 948.795 L1905.32 951.521 L1915.73 954.042 L1926.13 956.369 L1936.54 958.514 L1946.94 960.49 L1957.35 962.309 L1967.76 963.98 L1978.16 965.515 L1988.57 966.923 L1998.97 968.214 L2009.38 969.398 L2019.79 970.481 L2030.19 971.473 L2040.6 972.381 L2051 973.211 L2061.41 973.969 L2071.82 974.663 L2082.22 975.297 L2092.63 975.877 L2103.03 976.406 L2113.44 976.89 L2123.85 977.332 L2134.25 977.737 L2144.66 978.106 L2155.06 978.445 L2165.47 978.754 L2175.88 979.038 L2186.28 979.297 L2196.69 979.535 L2207.09 979.753 L2217.5 979.953 L2227.91 980.137 L2238.31 980.306 L2248.72 980.462 L2259.12 980.605 L2269.53 980.736 L2279.94 980.858 L2290.34 980.97 L2290.34 345.263 L2279.94 345.321 L2269.53 345.389 L2259.12 345.47 L2248.72 345.565 L2238.31 345.677 L2227.91 345.807 L2217.5 345.957 L2207.09 346.13 L2196.69 346.33 L2186.28 346.558 L2175.88 346.818 L2165.47 347.115 L2155.06 347.452 L2144.66 347.835 L2134.25 348.267 L2123.85 348.756 L2113.44 349.306 L2103.03 349.925 L2092.63 350.621 L2082.22 351.401 L2071.82 352.274 L2061.41 353.251 L2051 354.341 L2040.6 355.557 L2030.19 356.912 L2019.79 358.418 L2009.38 360.092 L1998.97 361.949 L1988.57 364.008 L1978.16 366.286 L1967.76 368.806 L1957.35 371.589 L1946.94 374.66 L1936.54 378.043 L1926.13 381.768 L1915.73 385.863 L1905.32 390.361 L1894.91 395.295 L1884.51 400.702 L1874.1 406.619 L1863.7 413.087 L1853.29 420.15 L1842.88 427.851 L1832.48 436.237 L1822.07 445.359 L1811.67 455.265 L1801.26 466.009 L1790.85 477.644 L1780.45 490.222 L1770.04 503.798 L1759.64 518.422 L1749.23 534.145 L1738.82 551.011 L1728.42 569.056 L1718.01 588.307 L1707.61 608.774 L1697.2 630.439 L1686.79 653.245 L1676.39 677.066 L1665.98 701.647 L1655.58 726.473 L1645.17 750.459 L1634.76 771.43 L1624.36 787.253 L1613.95 800.546 L1603.55 814.58 L1593.14 830.332 L1582.73 846.997 L1572.33 862.149 L1561.92 872.329 L1551.52 877.737 L1541.11 881.095 L1530.7 884.184 L1520.3 887.977 L1509.89 892.979 L1499.49 899.384 L1489.08 907.065 L1478.67 915.361 L1468.27 922.391 L1457.86 923.816 L1447.46 915.686 L1437.05 901.023 L1426.64 883.325 L1416.24 864.299 L1405.83 844.773 L1395.43 825.218 L1385.02 805.934 L1374.62 787.129 L1364.21 768.958 L1353.8 751.536 L1343.4 734.952 L1332.99 719.275 L1322.59 704.556 L1312.18 690.836 L1301.77 678.147 L1291.37 666.511 L1280.96 655.946 L1270.56 646.462 L1260.15 638.07 L1249.74 630.772 L1239.34 624.572 L1228.93 619.469 L1218.53 615.46 L1208.12 612.54 L1197.71 610.7 L1187.31 609.93 L1176.9 610.213 L1166.5 611.53 L1156.09 613.853 L1145.68 617.149 L1135.28 621.37 L1124.87 626.46 L1114.47 632.339 L1104.06 638.908 L1093.65 646.034 L1083.25 653.539 L1072.84 661.18 L1062.44 668.614 L1052.03 675.328 L1041.62 680.508 L1031.22 682.831 L1020.81 680.924 L1010.41 676.694 L999.999 671.978 L989.593 663.455 L979.187 646.172 L968.781 623.245 L958.375 598.058 L947.969 572.081 L937.563 546.168 L927.157 520.924 L916.751 496.827 L906.345 474.264 L895.939 453.56 L885.533 434.985 L875.127 418.754 L864.721 405.024 L854.315 393.87 L843.909 385.227 L833.503 378.76 L823.097 373.541 L812.691 367.452 L802.285 357.918 L791.879 346.722 L781.473 337.189 L771.067 330.92 L760.661 328.339 L750.255 329.249 L739.849 332.941 L729.443 337.924 L719.037 341.234 L708.631 340.073 L698.225 333.078 L687.819 321.389 L677.413 307.684 L667.008 293.358 L656.602 279.089 L646.196 265.26 L635.79 252.113 L625.384 239.817 L614.978 228.496 L604.572 218.249 L594.166 209.16 L583.76 201.301 L573.354 194.741 L562.948 189.547 L552.542 185.786 L542.136 183.529 L531.73 182.85 L521.324 183.828 L510.918 186.548 L500.512 191.098 L490.106 197.571 L479.7 206.062 L469.294 216.663 L458.888 229.461 L448.482 244.523 L438.076 261.877 L427.67 281.477 L417.264 303.112 L406.858 326.213 L396.452 349.436 L386.046 370.522 L375.64 389.51 L365.234 409.115 L354.828 430.337 L344.422 452.133 L334.016 471.742 L323.61 485.436 L313.204 493.608 L302.798 499.514 L292.392 505.527 L281.986 513.245 L271.58 523.79 L261.174 537.908 L250.768 555.817 L240.362 576.408 L229.956 595.234 L219.55 605.633  Z" fill="#009af9" fill-rule="evenodd" fill-opacity="0.3"></path>
<polyline clip-path="url(#clip132)" style="stroke:#009af9; stroke-linecap:round; stroke-linejoin:round; stroke-width:8; stroke-opacity:1; fill:none" points="219.55,635.168 229.956,617.932 240.362,600.844 250.768,586.814 261.174,575.385 271.58,565.734 281.986,557.058 292.392,548.566 302.798,539.476 313.204,528.998 323.61,516.335 334.016,500.687 344.422,482.042 354.828,461.483 365.234,440.155 375.64,419.205 386.046,399.786 396.452,383.029 406.858,369.259 417.264,358.13 427.67,349.307 438.076,342.489 448.482,337.404 458.888,333.809 469.294,331.483 479.7,330.229 490.106,329.872 500.512,330.254 510.918,331.234 521.324,332.688 531.73,334.503 542.136,336.584 552.542,338.843 562.948,341.206 573.354,343.609 583.76,345.996 594.166,348.321 604.572,350.545 614.978,352.638 625.384,354.576 635.79,356.343 646.196,357.93 656.602,359.333 667.008,360.557 677.413,361.611 687.819,362.513 698.225,363.286 708.631,363.962 719.037,364.588 729.443,365.233 739.849,366.049 750.255,367.275 760.661,369.166 771.067,371.993 781.473,376.043 791.879,381.625 802.285,389.074 812.691,398.748 823.097,410.791 833.503,424.883 843.909,440.672 854.315,457.832 864.721,476.058 875.127,495.06 885.533,514.564 895.939,534.303 906.345,554.02 916.751,573.458 927.157,592.362 937.563,610.475 947.969,627.531 958.375,643.256 968.781,657.363 979.187,669.547 989.593,679.51 999.999,688.23 1010.41,696.842 1020.81,705.228 1031.22,713.216 1041.62,720.705 1052.03,727.746 1062.44,734.409 1072.84,740.752 1083.25,746.834 1093.65,752.705 1104.06,758.412 1114.47,763.997 1124.87,769.499 1135.28,774.953 1145.68,780.391 1156.09,785.84 1166.5,791.326 1176.9,796.87 1187.31,802.493 1197.71,808.21 1208.12,814.035 1218.53,819.979 1228.93,826.049 1239.34,832.25 1249.74,838.583 1260.15,845.047 1270.56,851.637 1280.96,858.344 1291.37,865.154 1301.77,872.052 1312.18,879.014 1322.59,886.015 1332.99,893.021 1343.4,899.994 1353.8,906.888 1364.21,913.651 1374.62,920.223 1385.02,926.532 1395.43,932.501 1405.83,938.037 1416.24,943.038 1426.64,947.389 1437.05,950.959 1447.46,953.602 1457.86,955.153 1468.27,955.469 1478.67,954.565 1489.08,952.482 1499.49,949.241 1509.89,944.843 1520.3,939.269 1530.7,932.48 1541.11,924.415 1551.52,914.994 1561.92,904.115 1572.33,891.659 1582.73,877.747 1593.14,862.844 1603.55,847.422 1613.95,831.946 1624.36,816.872 1634.76,802.657 1645.17,789.627 1655.58,777.742 1665.98,766.905 1676.39,757.028 1686.79,748.03 1697.2,739.836 1707.61,732.378 1718.01,725.592 1728.42,719.421 1738.82,713.813 1749.23,708.718 1759.64,704.093 1770.04,699.896 1780.45,696.09 1790.85,692.641 1801.26,689.518 1811.67,686.692 1822.07,684.137 1832.48,681.828 1842.88,679.744 1853.29,677.864 1863.7,676.17 1874.1,674.646 1884.51,673.276 1894.91,672.045 1905.32,670.941 1915.73,669.952 1926.13,669.068 1936.54,668.279 1946.94,667.575 1957.35,666.949 1967.76,666.393 1978.16,665.901 1988.57,665.465 1998.97,665.082 2009.38,664.745 2019.79,664.45 2030.19,664.192 2040.6,663.969 2051,663.776 2061.41,663.61 2071.82,663.469 2082.22,663.349 2092.63,663.249 2103.03,663.166 2113.44,663.098 2123.85,663.044 2134.25,663.002 2144.66,662.971 2155.06,662.949 2165.47,662.935 2175.88,662.928 2186.28,662.927 2196.69,662.932 2207.09,662.942 2217.5,662.955 2227.91,662.972 2238.31,662.992 2248.72,663.013 2259.12,663.037 2269.53,663.063 2279.94,663.089 2290.34,663.117 "></polyline>
<polyline clip-path="url(#clip132)" style="stroke:#009af9; stroke-linecap:round; stroke-linejoin:round; stroke-width:4; stroke-opacity:0.5; fill:none" points="219.55,658.859 229.956,629.97 240.362,607.884 250.768,587.212 261.174,563.818 271.58,539.049 281.986,520.231 292.392,498.358 302.798,479.651 313.204,474.187 323.61,470.554 334.016,466.304 344.422,466.641 354.828,458.022 365.234,444.942 375.64,423.563 386.046,392.718 396.452,368.038 406.858,340.222 417.264,305.476 427.67,279.193 438.076,261.519 448.482,240.962 458.888,209.402 469.294,194.367 479.7,194.594 490.106,201.372 500.512,221.115 510.918,241.992 521.324,270.267 531.73,300.642 542.136,317.477 552.542,322.789 562.948,331.7 573.354,350.5 583.76,379.412 594.166,411.002 604.572,434.47 614.978,438.086 625.384,440.127 635.79,424.874 646.196,413.319 656.602,405.353 667.008,394.201 677.413,397.873 687.819,395.842 698.225,388.839 708.631,393.986 719.037,391.435 729.443,385.738 739.849,364.318 750.255,344.001 760.661,341.02 771.067,353.333 781.473,376.568 791.879,399.272 802.285,420.032 812.691,443.902 823.097,464.788 833.503,481.873 843.909,499.156 854.315,512.139 864.721,515.53 875.127,519.132 885.533,523.752 895.939,534.723 906.345,549.716 916.751,570.076 927.157,588.83 937.563,621.844 947.969,645.802 958.375,658.799 968.781,662.518 979.187,665.078 989.593,678.733 999.999,688.739 1010.41,694.857 1020.81,701.935 1031.22,702.119 1041.62,702.58 1052.03,710.702 1062.44,733.449 1072.84,763.133 1083.25,769.378 1093.65,777.529 1104.06,796.807 1114.47,816.328 1124.87,847.246 1135.28,880.133 1145.68,890.985 1156.09,890.698 1166.5,890.806 1176.9,881.781 1187.31,872.17 1197.71,869.577 1208.12,885.571 1218.53,892.897 1228.93,909.808 1239.34,922.524 1249.74,940.322 1260.15,957.658 1270.56,964.277 1280.96,961.624 1291.37,960.644 1301.77,964.339 1312.18,970.692 1322.59,963.427 1332.99,954.029 1343.4,947.894 1353.8,944.917 1364.21,934.249 1374.62,917.545 1385.02,895.788 1395.43,888.386 1405.83,884.273 1416.24,892.142 1426.64,898.964 1437.05,903.499 1447.46,913.557 1457.86,932.722 1468.27,958.404 1478.67,982.264 1489.08,995.454 1499.49,998.302 1509.89,986.693 1520.3,984.013 1530.7,991.808 1541.11,988.195 1551.52,972.645 1561.92,949.371 1572.33,926.729 1582.73,896.582 1593.14,877.294 1603.55,860.57 1613.95,837.872 1624.36,813.241 1634.76,790.066 1645.17,766.451 1655.58,739.142 1665.98,703.316 1676.39,657.467 1686.79,619.947 1697.2,580.478 1707.61,536.059 1718.01,492.003 1728.42,468.736 1738.82,460.626 1749.23,450.836 1759.64,453.852 1770.04,466.188 1780.45,472.621 1790.85,479.781 1801.26,487.446 1811.67,486.234 1822.07,477.773 1832.48,457.587 1842.88,432.241 1853.29,406.195 1863.7,382.529 1874.1,351.239 1884.51,333.29 1894.91,315.607 1905.32,300.969 1915.73,294.956 1926.13,288.457 1936.54,299.302 1946.94,315.569 1957.35,331.268 1967.76,358.619 1978.16,393.428 1988.57,423.636 1998.97,450.646 2009.38,478.348 2019.79,509.493 2030.19,532.048 2040.6,552.035 2051,550.911 2061.41,539.488 2071.82,536.343 2082.22,540.628 2092.63,551.651 2103.03,569.303 2113.44,578.434 2123.85,594.798 2134.25,626.658 2144.66,650.913 2155.06,670.22 2165.47,694.369 2175.88,712.957 2186.28,720.03 2196.69,723.597 2207.09,721.186 2217.5,710.69 2227.91,700.428 2238.31,685.846 2248.72,680.416 2259.12,678.558 2269.53,678.02 2279.94,682.959 2290.34,696.546 "></polyline>
<polyline clip-path="url(#clip132)" style="stroke:#009af9; stroke-linecap:round; stroke-linejoin:round; stroke-width:4; stroke-opacity:0.5; fill:none" points="219.55,586.111 229.956,568.871 240.362,550.181 250.768,527.273 261.174,519.989 271.58,521.862 281.986,528.407 292.392,536.656 302.798,541.836 313.204,543.78 323.61,541.138 334.016,525.751 344.422,508.11 354.828,469.933 365.234,436.839 375.64,414.139 386.046,403.969 396.452,398.477 406.858,399.796 417.264,414.457 427.67,435.62 438.076,458.806 448.482,493.529 458.888,497.971 469.294,488.91 479.7,487.518 490.106,486.79 500.512,475.577 510.918,456.607 521.324,427.071 531.73,388.785 542.136,348.333 552.542,302.055 562.948,254.977 573.354,223.149 583.76,195.42 594.166,177.808 604.572,172.338 614.978,170.394 625.384,162.047 635.79,172.882 646.196,203.132 656.602,233.92 667.008,270.54 677.413,305.132 687.819,340.88 698.225,371.591 708.631,398.062 719.037,410.595 729.443,425.43 739.849,436.936 750.255,442.075 760.661,442.302 771.067,439.604 781.473,433.032 791.879,423.208 802.285,414.633 812.691,411.751 823.097,422.48 833.503,436.71 843.909,453.843 854.315,473.395 864.721,493.512 875.127,511.585 885.533,531.045 895.939,547.757 906.345,570.817 916.751,598.028 927.157,631.956 937.563,662.678 947.969,684.424 958.375,690.739 968.781,689.16 979.187,690.251 989.593,697.66 999.999,711.79 1010.41,722.04 1020.81,718.482 1031.22,711.66 1041.62,686.319 1052.03,648.842 1062.44,617.678 1072.84,591.893 1083.25,577.326 1093.65,560.507 1104.06,544.428 1114.47,537.545 1124.87,519.83 1135.28,496.57 1145.68,493.94 1156.09,496.25 1166.5,493.05 1176.9,485.005 1187.31,490.619 1197.71,505.54 1208.12,528.781 1218.53,561.503 1228.93,590.078 1239.34,616.656 1249.74,618.461 1260.15,612.881 1270.56,608.083 1280.96,615.151 1291.37,629.482 1301.77,637.827 1312.18,650.792 1322.59,653.582 1332.99,663.35 1343.4,677.395 1353.8,682.473 1364.21,721.706 1374.62,763.272 1385.02,810.551 1395.43,856.522 1405.83,895.055 1416.24,933.149 1426.64,956.2 1437.05,975.779 1447.46,980.231 1457.86,984.35 1468.27,996.968 1478.67,1006.94 1489.08,1005.76 1499.49,1008.33 1509.89,1000.37 1520.3,1001.16 1530.7,993.292 1541.11,989.613 1551.52,966.787 1561.92,936.641 1572.33,901.915 1582.73,873.338 1593.14,850.007 1603.55,834.062 1613.95,820.369 1624.36,793.011 1634.76,777.012 1645.17,775.11 1655.58,779.92 1665.98,794.777 1676.39,801.199 1686.79,803.615 1697.2,804.668 1707.61,808.766 1718.01,811.43 1728.42,823.751 1738.82,825.281 1749.23,831.128 1759.64,841.769 1770.04,843.813 1780.45,845.462 1790.85,844.28 1801.26,848.521 1811.67,848.459 1822.07,851.654 1832.48,840.262 1842.88,844.555 1853.29,846.992 1863.7,855.801 1874.1,867.102 1884.51,871.25 1894.91,871.744 1905.32,885.881 1915.73,899.649 1926.13,911.681 1936.54,925.141 1946.94,940.501 1957.35,943.724 1967.76,944.23 1978.16,957.913 1988.57,965.495 1998.97,976.96 2009.38,994.353 2019.79,1009.65 2030.19,1017.8 2040.6,1021.53 2051,1027.34 2061.41,1034.74 2071.82,1033.24 2082.22,1032.2 2092.63,1008.88 2103.03,972.81 2113.44,948.375 2123.85,926.526 2134.25,900.936 2144.66,858.263 2155.06,816.643 2165.47,794.292 2175.88,782.773 2186.28,774.854 2196.69,771.231 2207.09,774.011 2217.5,765.253 2227.91,760.856 2238.31,740.173 2248.72,713.312 2259.12,683.504 2269.53,648.766 2279.94,617.963 2290.34,589.277 "></polyline>
<polyline clip-path="url(#clip132)" style="stroke:#009af9; stroke-linecap:round; stroke-linejoin:round; stroke-width:4; stroke-opacity:0.5; fill:none" points="219.55,579.703 229.956,588.381 240.362,590.195 250.768,570.508 261.174,540.966 271.58,526.141 281.986,523.799 292.392,528.154 302.798,527.893 313.204,521.266 323.61,510.528 334.016,492.637 344.422,466.088 354.828,436.545 365.234,401.365 375.64,369.247 386.046,358.704 396.452,363.931 406.858,383.783 417.264,409.751 427.67,415.363 438.076,409.431 448.482,402.246 458.888,401.281 469.294,415.366 479.7,424.814 490.106,435.345 500.512,441.184 510.918,425.308 521.324,394.658 531.73,370.844 542.136,342.844 552.542,305.803 562.948,281.342 573.354,270.176 583.76,268.757 594.166,281.63 604.572,288.156 614.978,305.193 625.384,319.135 635.79,319.348 646.196,327.475 656.602,345.846 667.008,355.388 677.413,360.88 687.819,363.281 698.225,372.959 708.631,379.016 719.037,388.25 729.443,407.595 739.849,435.732 750.255,447.17 760.661,456.054 771.067,447.282 781.473,439.278 791.879,423.522 802.285,407.886 812.691,397.5 823.097,404.763 833.503,418.548 843.909,439.074 854.315,456.003 864.721,462 875.127,449.477 885.533,451.462 895.939,475.44 906.345,488.995 916.751,498.871 927.157,509.499 937.563,541.984 947.969,571.069 958.375,600.312 968.781,625.852 979.187,639.463 989.593,650.72 999.999,665.361 1010.41,683.321 1020.81,704.061 1031.22,718.88 1041.62,731.391 1052.03,740.809 1062.44,742.414 1072.84,744.907 1083.25,740.913 1093.65,743.713 1104.06,749.204 1114.47,759.499 1124.87,780.384 1135.28,797.844 1145.68,797.564 1156.09,776.598 1166.5,750.014 1176.9,732.427 1187.31,724.928 1197.71,720.248 1208.12,708.897 1218.53,695.811 1228.93,683.239 1239.34,667.403 1249.74,655.669 1260.15,650.433 1270.56,656.941 1280.96,658.916 1291.37,652.213 1301.77,666.273 1312.18,690.138 1322.59,724.061 1332.99,739.434 1343.4,764.685 1353.8,792.645 1364.21,819.605 1374.62,844.454 1385.02,877.123 1395.43,898.869 1405.83,912.024 1416.24,919.27 1426.64,923.606 1437.05,926.936 1447.46,936.098 1457.86,954.562 1468.27,983.846 1478.67,998.697 1489.08,999.114 1499.49,982.858 1509.89,968.391 1520.3,955.066 1530.7,931.809 1541.11,910.441 1551.52,896.139 1561.92,883.101 1572.33,873.499 1582.73,875.361 1593.14,871.139 1603.55,849.941 1613.95,826.585 1624.36,808.506 1634.76,791.023 1645.17,781.805 1655.58,774.94 1665.98,776.111 1676.39,777.261 1686.79,770.06 1697.2,769.445 1707.61,765.754 1718.01,771.825 1728.42,781.102 1738.82,777.229 1749.23,762.227 1759.64,743.761 1770.04,725.205 1780.45,720.69 1790.85,720.388 1801.26,732.789 1811.67,736.532 1822.07,739.123 1832.48,735.175 1842.88,737.425 1853.29,739.763 1863.7,737.335 1874.1,749.136 1884.51,762.253 1894.91,766.45 1905.32,773.493 1915.73,779.648 1926.13,778.644 1936.54,780.493 1946.94,796.391 1957.35,797.674 1967.76,786.186 1978.16,768.37 1988.57,738.397 1998.97,697.969 2009.38,666.232 2019.79,647.415 2030.19,636.847 2040.6,627.614 2051,623.375 2061.41,613.139 2071.82,622.274 2082.22,641.574 2092.63,645.708 2103.03,660.434 2113.44,681.198 2123.85,699.691 2134.25,713.933 2144.66,726.267 2155.06,728.904 2165.47,718.543 2175.88,704.163 2186.28,685.293 2196.69,668.7 2207.09,645.443 2217.5,617.346 2227.91,590.249 2238.31,575.071 2248.72,561.325 2259.12,558.441 2269.53,547.499 2279.94,538.629 2290.34,521.734 "></polyline>
<polyline clip-path="url(#clip132)" style="stroke:#009af9; stroke-linecap:round; stroke-linejoin:round; stroke-width:4; stroke-opacity:0.5; fill:none" points="219.55,620.504 229.956,596.527 240.362,581.197 250.768,576.18 261.174,568.182 271.58,570.325 281.986,561.132 292.392,545.072 302.798,522.127 313.204,495.214 323.61,471.856 334.016,458.981 344.422,442.626 354.828,427.631 365.234,407.96 375.64,379.525 386.046,350.859 396.452,339.346 406.858,337.756 417.264,327.951 427.67,318.382 438.076,308.969 448.482,296.73 458.888,304.137 469.294,310.619 479.7,321.461 490.106,329.901 500.512,328.791 510.918,310.401 521.324,297.922 531.73,299.331 542.136,302.008 552.542,296.703 562.948,295.667 573.354,289.125 583.76,277.654 594.166,272.8 604.572,276.83 614.978,288.89 625.384,298.846 635.79,314.512 646.196,333.027 656.602,344.743 667.008,355.497 677.413,369.811 687.819,369.163 698.225,360.925 708.631,343.591 719.037,325.225 729.443,323.258 739.849,331.449 750.255,332.356 760.661,335.519 771.067,340.337 781.473,356.033 791.879,371.932 802.285,386.211 812.691,407.452 823.097,423.768 833.503,429.42 843.909,434.488 854.315,446.999 864.721,470.878 875.127,492.511 885.533,494.099 895.939,484.846 906.345,467.913 916.751,455.246 927.157,460.043 937.563,469.78 947.969,496.911 958.375,534.778 968.781,578.777 979.187,623.043 989.593,660.362 999.999,685.455 1010.41,706.343 1020.81,736.977 1031.22,759.829 1041.62,772.324 1052.03,768.826 1062.44,764.355 1072.84,761.142 1083.25,749.788 1093.65,743.379 1104.06,731.51 1114.47,706.217 1124.87,692.446 1135.28,693.017 1145.68,704.22 1156.09,719.166 1166.5,742.945 1176.9,768.782 1187.31,798.923 1197.71,836.519 1208.12,861.505 1218.53,875.762 1228.93,897.741 1239.34,932.412 1249.74,976.487 1260.15,1010.44 1270.56,1023.53 1280.96,1033.06 1291.37,1041.71 1301.77,1054.63 1312.18,1071.23 1322.59,1081.67 1332.99,1082.77 1343.4,1079.43 1353.8,1086.64 1364.21,1091.87 1374.62,1092.38 1385.02,1094.86 1395.43,1089.08 1405.83,1094.27 1416.24,1089.15 1426.64,1062.97 1437.05,1034.45 1447.46,1006.21 1457.86,986.941 1468.27,961.054 1478.67,942.555 1489.08,931.983 1499.49,922.107 1509.89,925.182 1520.3,921.632 1530.7,918.284 1541.11,912.216 1551.52,895.215 1561.92,881.561 1572.33,859.251 1582.73,848.2 1593.14,840.072 1603.55,837.498 1613.95,826.768 1624.36,813.403 1634.76,811.658 1645.17,813.451 1655.58,807.524 1665.98,789.873 1676.39,765.904 1686.79,717.873 1697.2,674.15 1707.61,636.314 1718.01,602.261 1728.42,593.51 1738.82,596.352 1749.23,604.767 1759.64,614.76 1770.04,610.396 1780.45,605.438 1790.85,604.06 1801.26,606.403 1811.67,599.589 1822.07,591.451 1832.48,579.937 1842.88,575.678 1853.29,550.939 1863.7,534.065 1874.1,537.752 1884.51,546.958 1894.91,571.019 1905.32,591.067 1915.73,615.406 1926.13,628.152 1936.54,640.752 1946.94,672.791 1957.35,714.525 1967.76,752.622 1978.16,777.237 1988.57,785.041 1998.97,798.972 2009.38,819.01 2019.79,834.853 2030.19,855.496 2040.6,870.878 2051,879.802 2061.41,867.473 2071.82,863.032 2082.22,859.445 2092.63,843.692 2103.03,816.188 2113.44,803.134 2123.85,797.848 2134.25,775.517 2144.66,746.956 2155.06,713.126 2165.47,687.202 2175.88,663.671 2186.28,633.803 2196.69,607.268 2207.09,576.368 2217.5,544.598 2227.91,524.059 2238.31,524.269 2248.72,533.478 2259.12,544.652 2269.53,548.573 2279.94,539.347 2290.34,514.566 "></polyline>
<polyline clip-path="url(#clip132)" style="stroke:#009af9; stroke-linecap:round; stroke-linejoin:round; stroke-width:4; stroke-opacity:0.5; fill:none" points="219.55,587.817 229.956,594.602 240.362,594.844 250.768,592.94 261.174,590.11 271.58,581.33 281.986,568.185 292.392,555.69 302.798,548.395 313.204,546.174 323.61,533.503 334.016,518.862 344.422,494.731 354.828,484.274 365.234,467.606 375.64,447.697 386.046,420.21 396.452,392.941 406.858,372.509 417.264,353.981 427.67,332.583 438.076,312.717 448.482,312.564 458.888,317.374 469.294,320.336 479.7,308.773 490.106,280.803 500.512,268.638 510.918,266.631 521.324,274.038 531.73,278.075 542.136,272.25 552.542,270.286 562.948,258.465 573.354,261.766 583.76,261.6 594.166,280.379 604.572,286.16 614.978,296.337 625.384,303.831 635.79,312.707 646.196,320.354 656.602,337.52 667.008,365.634 677.413,385.283 687.819,399.145 698.225,400.197 708.631,403.355 719.037,391.252 729.443,369.688 739.849,351.916 750.255,344.162 760.661,332.404 771.067,327.655 781.473,320.666 791.879,312.763 802.285,329.118 812.691,361.843 823.097,397.064 833.503,429.818 843.909,462.408 854.315,477.475 864.721,486.294 875.127,510.623 885.533,538.9 895.939,564.596 906.345,592.482 916.751,612.098 927.157,617.041 937.563,613.943 947.969,624.061 958.375,650.059 968.781,675.332 979.187,687.311 989.593,689.879 999.999,682.435 1010.41,665.791 1020.81,662.01 1031.22,678.627 1041.62,693.243 1052.03,717.58 1062.44,754.325 1072.84,800.064 1083.25,838.836 1093.65,864.393 1104.06,882.558 1114.47,886.725 1124.87,875.888 1135.28,872.084 1145.68,880.698 1156.09,894.145 1166.5,917.346 1176.9,943.134 1187.31,968.886 1197.71,993.331 1208.12,1022.4 1218.53,1046.21 1228.93,1053.03 1239.34,1049.87 1249.74,1047.03 1260.15,1044.64 1270.56,1048.56 1280.96,1047.2 1291.37,1050.26 1301.77,1031.81 1312.18,1011.24 1322.59,985.177 1332.99,971.015 1343.4,965.854 1353.8,969.191 1364.21,976.065 1374.62,974.241 1385.02,965.778 1395.43,949.146 1405.83,929.995 1416.24,922.658 1426.64,920.249 1437.05,928.908 1447.46,931.013 1457.86,920.788 1468.27,914.065 1478.67,889.953 1489.08,864.63 1499.49,859.803 1509.89,863.381 1520.3,870.172 1530.7,873.28 1541.11,892.167 1551.52,903.054 1561.92,897.463 1572.33,897.513 1582.73,896.285 1593.14,889.303 1603.55,872.862 1613.95,843.171 1624.36,819.747 1634.76,797.134 1645.17,785.188 1655.58,785.263 1665.98,798.808 1676.39,820.583 1686.79,828.502 1697.2,844.677 1707.61,862.55 1718.01,869.087 1728.42,871.789 1738.82,887.952 1749.23,919.689 1759.64,951.083 1770.04,962.048 1780.45,967.155 1790.85,964.388 1801.26,951.043 1811.67,935.15 1822.07,920.831 1832.48,894.041 1842.88,864.975 1853.29,836.319 1863.7,810.544 1874.1,771.417 1884.51,727.323 1894.91,689.088 1905.32,648.176 1915.73,604.413 1926.13,571.285 1936.54,545.47 1946.94,528.016 1957.35,519.621 1967.76,530.118 1978.16,552.125 1988.57,587.316 1998.97,611.071 2009.38,631.786 2019.79,647.147 2030.19,644.019 2040.6,636.819 2051,627.873 2061.41,612.538 2071.82,600.821 2082.22,584.658 2092.63,580.699 2103.03,563.016 2113.44,538.415 2123.85,515.226 2134.25,491.819 2144.66,475.813 2155.06,469.274 2165.47,462.906 2175.88,464.636 2186.28,480.725 2196.69,485.197 2207.09,476.039 2217.5,476.905 2227.91,475.502 2238.31,460.736 2248.72,433.094 2259.12,386.487 2269.53,354.67 2279.94,332.06 2290.34,316.713 "></polyline>
<path clip-path="url(#clip132)" d="M219.55 655.687 L229.956 639.772 L240.362 631.038 L250.768 627.292 L261.174 623.069 L271.58 615.604 L281.986 604.106 L292.392 588.311 L302.798 568.783 L313.204 547.965 L323.61 530.446 L334.016 518.073 L344.422 505.376 L354.828 490.399 L365.234 473.466 L375.64 455.69 L386.046 438.772 L396.452 425.154 L406.858 415.999 L417.264 411.246 L427.67 408.842 L438.076 406.842 L448.482 405.525 L458.888 405.15 L469.294 403.64 L479.7 401.446 L490.106 399.615 L500.512 398.178 L510.918 396.428 L521.324 394.076 L531.73 391.244 L542.136 388.462 L552.542 386.682 L562.948 387.145 L573.354 390.481 L583.76 395.53 L594.166 401.073 L604.572 406.272 L614.978 410.588 L625.384 413.68 L635.79 415.346 L646.196 415.488 L656.602 414.099 L667.008 411.268 L677.413 407.204 L687.819 402.303 L698.225 397.329 L708.631 393.775 L719.037 393.375 L729.443 397.407 L739.849 404.719 L750.255 412.414 L760.661 418.715 L771.067 423.287 L781.473 426.775 L791.879 430.532 L802.285 436.588 L812.691 447.383 L823.097 463.826 L833.503 484.055 L843.909 506.339 L854.315 529.452 L864.721 552.516 L875.127 574.868 L885.533 595.989 L895.939 615.46 L906.345 632.943 L916.751 648.174 L927.157 660.97 L937.563 671.253 L947.969 679.11 L958.375 684.835 L968.781 688.653 L979.187 691.326 L989.593 695.932 L999.999 707.767 L1010.41 724.527 L1020.81 742.569 L1031.22 761.069 L1041.62 779.675 L1052.03 797.485 L1062.44 813.856 L1072.84 828.5 L1083.25 841.578 L1093.65 853.772 L1104.06 865.667 L1114.47 877.829 L1124.87 890.85 L1135.28 905.139 L1145.68 920.719 L1156.09 937.002 L1166.5 952.395 L1176.9 965.743 L1187.31 976.465 L1197.71 984.313 L1208.12 989.289 L1218.53 991.669 L1228.93 992.144 L1239.34 991.922 L1249.74 992.3 L1260.15 994.879 L1270.56 1001.29 L1280.96 1011.5 L1291.37 1023.17 L1301.77 1034.61 L1312.18 1044.88 L1322.59 1053.52 L1332.99 1060.26 L1343.4 1064.67 L1353.8 1066.29 L1364.21 1064.84 L1374.62 1060.21 L1385.02 1052.43 L1395.43 1041.64 L1405.83 1028.19 L1416.24 1012.67 L1426.64 996.286 L1437.05 981.504 L1447.46 972.135 L1457.86 971.901 L1468.27 977.865 L1478.67 984.688 L1489.08 989.345 L1499.49 990.208 L1509.89 986.525 L1520.3 978.53 L1530.7 966.619 L1541.11 950.509 L1551.52 931.351 L1561.92 911.726 L1572.33 895.047 L1582.73 883.046 L1593.14 873.73 L1603.55 865.395 L1613.95 857.03 L1624.36 848.271 L1634.76 839.46 L1645.17 830.924 L1655.58 821.281 L1665.98 809.747 L1676.39 798.048 L1686.79 791.616 L1697.2 792.905 L1707.61 798.115 L1718.01 805.146 L1728.42 813.132 L1738.82 821.628 L1749.23 830.355 L1759.64 839.128 L1770.04 847.814 L1780.45 856.318 L1790.85 864.57 L1801.26 872.521 L1811.67 880.136 L1822.07 887.394 L1832.48 894.282 L1842.88 900.794 L1853.29 906.93 L1863.7 912.694 L1874.1 918.095 L1884.51 923.144 L1894.91 927.852 L1905.32 932.234 L1915.73 936.305 L1926.13 940.08 L1936.54 943.575 L1946.94 946.806 L1957.35 949.789 L1967.76 952.539 L1978.16 955.072 L1988.57 957.401 L1998.97 959.541 L2009.38 961.505 L2019.79 963.307 L2030.19 964.957 L2040.6 966.468 L2051 967.85 L2061.41 969.113 L2071.82 970.267 L2082.22 971.321 L2092.63 972.283 L2103.03 973.16 L2113.44 973.961 L2123.85 974.69 L2134.25 975.355 L2144.66 975.96 L2155.06 976.512 L2165.47 977.015 L2175.88 977.473 L2186.28 977.89 L2196.69 978.27 L2207.09 978.617 L2217.5 978.933 L2227.91 979.221 L2238.31 979.483 L2248.72 979.723 L2259.12 979.942 L2269.53 980.141 L2279.94 980.324 L2290.34 980.491 L2290.34 345.828 L2279.94 345.955 L2269.53 346.102 L2259.12 346.271 L2248.72 346.464 L2238.31 346.685 L2227.91 346.935 L2217.5 347.22 L2207.09 347.543 L2196.69 347.908 L2186.28 348.32 L2175.88 348.784 L2165.47 349.307 L2155.06 349.893 L2144.66 350.552 L2134.25 351.289 L2123.85 352.114 L2113.44 353.035 L2103.03 354.062 L2092.63 355.208 L2082.22 356.482 L2071.82 357.898 L2061.41 359.471 L2051 361.215 L2040.6 363.146 L2030.19 365.283 L2019.79 367.645 L2009.38 370.253 L1998.97 373.128 L1988.57 376.295 L1978.16 379.78 L1967.76 383.609 L1957.35 387.813 L1946.94 392.422 L1936.54 397.47 L1926.13 402.993 L1915.73 409.026 L1905.32 415.61 L1894.91 422.786 L1884.51 430.596 L1874.1 439.085 L1863.7 448.299 L1853.29 458.285 L1842.88 469.091 L1832.48 480.766 L1822.07 493.356 L1811.67 506.91 L1801.26 521.469 L1790.85 537.075 L1780.45 553.761 L1770.04 571.551 L1759.64 590.457 L1749.23 610.471 L1738.82 631.556 L1728.42 653.63 L1718.01 676.53 L1707.61 699.934 L1697.2 723.112 L1686.79 744.114 L1676.39 759.08 L1665.98 766.63 L1655.58 771.608 L1645.17 776.489 L1634.76 781.204 L1624.36 784.823 L1613.95 788.294 L1603.55 793.79 L1593.14 802.841 L1582.73 816.359 L1572.33 834.61 L1561.92 856.877 L1551.52 880.886 L1541.11 904.108 L1530.7 923.177 L1520.3 934.608 L1509.89 938.101 L1499.49 936.317 L1489.08 932.439 L1478.67 928.923 L1468.27 927.758 L1457.86 929.547 L1447.46 932.821 L1437.05 935.911 L1426.64 938.676 L1416.24 940.646 L1405.83 941.443 L1395.43 941.979 L1385.02 942.793 L1374.62 944.099 L1364.21 945.897 L1353.8 948.009 L1343.4 950.069 L1332.99 951.5 L1322.59 951.493 L1312.18 949.936 L1301.77 947.66 L1291.37 945.29 L1280.96 942.968 L1270.56 940.024 L1260.15 935 L1249.74 927.418 L1239.34 917.909 L1228.93 907.06 L1218.53 895.282 L1208.12 883.697 L1197.71 873.162 L1187.31 864.084 L1176.9 856.57 L1166.5 850.446 L1156.09 845.179 L1145.68 839.638 L1135.28 832.22 L1124.87 822.275 L1114.47 809.738 L1104.06 794.903 L1093.65 778.221 L1083.25 760.093 L1072.84 741.145 L1062.44 722.937 L1052.03 706.694 L1041.62 693.186 L1031.22 682.842 L1020.81 675.716 L1010.41 671.403 L999.999 668.562 L989.593 662.954 L979.187 649.274 L968.781 630.189 L958.375 608.678 L947.969 585.422 L937.563 560.735 L927.157 535.546 L916.751 510.644 L906.345 486.634 L895.939 464.004 L885.533 443.159 L875.127 424.433 L864.721 408.093 L854.315 394.325 L843.909 383.204 L833.503 374.627 L823.097 368.193 L812.691 363.048 L802.285 358.087 L791.879 353.425 L781.473 349.974 L771.067 348.28 L760.661 348.249 L750.255 349.1 L739.849 349.187 L729.443 347.097 L719.037 341.593 L708.631 332.422 L698.225 320.965 L687.819 308.946 L677.413 297.762 L667.008 288.094 L656.602 280.284 L646.196 274.509 L635.79 270.847 L625.384 269.309 L614.978 269.837 L604.572 272.293 L594.166 276.426 L583.76 281.812 L573.354 287.76 L562.948 293.221 L552.542 297.188 L542.136 300.211 L531.73 303.395 L521.324 307.588 L510.918 313.248 L500.512 320.447 L490.106 328.879 L479.7 337.807 L469.294 346.331 L458.888 353.516 L448.482 358.401 L438.076 363.269 L427.67 368.806 L417.264 373.882 L406.858 377.916 L396.452 380.954 L386.046 385.976 L375.64 395.932 L365.234 410.975 L354.828 430.337 L344.422 452.713 L334.016 476.029 L323.61 496.894 L313.204 514.124 L302.798 527.544 L292.392 538.382 L281.986 548.146 L271.58 557.955 L261.174 568.128 L250.768 578.741 L240.362 590.542 L229.956 602.425 L219.55 608.116  Z" fill="#3da44d" fill-rule="evenodd" fill-opacity="0.3"></path>
<polyline clip-path="url(#clip132)" style="stroke:#3da44d; stroke-linecap:round; stroke-linejoin:round; stroke-width:8; stroke-opacity:1; fill:none" points="219.55,631.902 229.956,621.098 240.362,610.79 250.768,603.016 261.174,595.598 271.58,586.78 281.986,576.126 292.392,563.346 302.798,548.163 313.204,531.044 323.61,513.67 334.016,497.051 344.422,479.044 354.828,460.368 365.234,442.22 375.64,425.811 386.046,412.374 396.452,403.054 406.858,396.958 417.264,392.564 427.67,388.824 438.076,385.055 448.482,381.963 458.888,379.333 469.294,374.985 479.7,369.627 490.106,364.247 500.512,359.313 510.918,354.838 521.324,350.832 531.73,347.319 542.136,344.336 552.542,341.935 562.948,340.183 573.354,339.12 583.76,338.671 594.166,338.749 604.572,339.283 614.978,340.213 625.384,341.495 635.79,343.097 646.196,344.998 656.602,347.192 667.008,349.681 677.413,352.483 687.819,355.625 698.225,359.147 708.631,363.099 719.037,367.484 729.443,372.252 739.849,376.953 750.255,380.757 760.661,383.482 771.067,385.783 781.473,388.375 791.879,391.979 802.285,397.337 812.691,405.216 823.097,416.009 833.503,429.341 843.909,444.772 854.315,461.888 864.721,480.304 875.127,499.651 885.533,519.574 895.939,539.732 906.345,559.789 916.751,579.409 927.157,598.258 937.563,615.994 947.969,632.266 958.375,646.757 968.781,659.421 979.187,670.3 989.593,679.443 999.999,688.165 1010.41,697.965 1020.81,709.143 1031.22,721.956 1041.62,736.431 1052.03,752.089 1062.44,768.396 1072.84,784.823 1083.25,800.836 1093.65,815.996 1104.06,830.285 1114.47,843.783 1124.87,856.563 1135.28,868.679 1145.68,880.179 1156.09,891.09 1166.5,901.42 1176.9,911.156 1187.31,920.275 1197.71,928.737 1208.12,936.493 1218.53,943.475 1228.93,949.602 1239.34,954.916 1249.74,959.859 1260.15,964.939 1270.56,970.658 1280.96,977.231 1291.37,984.231 1301.77,991.134 1312.18,997.408 1322.59,1002.51 1332.99,1005.88 1343.4,1007.37 1353.8,1007.15 1364.21,1005.37 1374.62,1002.16 1385.02,997.61 1395.43,991.811 1405.83,984.815 1416.24,976.657 1426.64,967.481 1437.05,958.707 1447.46,952.478 1457.86,950.724 1468.27,952.811 1478.67,956.806 1489.08,960.892 1499.49,963.263 1509.89,962.313 1520.3,956.569 1530.7,944.898 1541.11,927.309 1551.52,906.119 1561.92,884.301 1572.33,864.828 1582.73,849.702 1593.14,838.286 1603.55,829.593 1613.95,822.662 1624.36,816.547 1634.76,810.332 1645.17,803.706 1655.58,796.445 1665.98,788.189 1676.39,778.564 1686.79,767.865 1697.2,758.008 1707.61,749.025 1718.01,740.838 1728.42,733.381 1738.82,726.592 1749.23,720.413 1759.64,714.792 1770.04,709.683 1780.45,705.039 1790.85,700.823 1801.26,696.995 1811.67,693.523 1822.07,690.375 1832.48,687.524 1842.88,684.942 1853.29,682.607 1863.7,680.496 1874.1,678.59 1884.51,676.87 1894.91,675.319 1905.32,673.922 1915.73,672.666 1926.13,671.536 1936.54,670.523 1946.94,669.614 1957.35,668.801 1967.76,668.074 1978.16,667.426 1988.57,666.848 1998.97,666.335 2009.38,665.879 2019.79,665.476 2030.19,665.12 2040.6,664.807 2051,664.532 2061.41,664.292 2071.82,664.083 2082.22,663.902 2092.63,663.745 2103.03,663.611 2113.44,663.498 2123.85,663.402 2134.25,663.322 2144.66,663.256 2155.06,663.203 2165.47,663.161 2175.88,663.129 2186.28,663.105 2196.69,663.089 2207.09,663.08 2217.5,663.076 2227.91,663.078 2238.31,663.084 2248.72,663.094 2259.12,663.106 2269.53,663.122 2279.94,663.14 2290.34,663.159 "></polyline>
<polyline clip-path="url(#clip132)" style="stroke:#3da44d; stroke-linecap:round; stroke-linejoin:round; stroke-width:4; stroke-opacity:0.5; fill:none" points="219.55,680.03 229.956,667.644 240.362,642.657 250.768,607.151 261.174,577.206 271.58,559.7 281.986,551.3 292.392,554.604 302.798,554.619 313.204,542.949 323.61,526.208 334.016,510.086 344.422,494.08 354.828,475.739 365.234,460.979 375.64,440.279 386.046,426.146 396.452,416.511 406.858,417.225 417.264,410.493 427.67,390.587 438.076,364.271 448.482,344.245 458.888,332.971 469.294,323.452 479.7,321.838 490.106,342.731 500.512,363.194 510.918,380.371 521.324,392.119 531.73,401.264 542.136,416.43 552.542,420.839 562.948,424.87 573.354,421.194 583.76,406.326 594.166,393.188 604.572,386.999 614.978,379.062 625.384,360.172 635.79,336.825 646.196,320.212 656.602,314.273 667.008,309.622 677.413,319.152 687.819,316.623 698.225,315.527 708.631,322.566 719.037,332.983 729.443,349.28 739.849,365.801 750.255,385.385 760.661,402.809 771.067,426.067 781.473,447.499 791.879,465.473 802.285,501.975 812.691,538.541 823.097,549.313 833.503,555.218 843.909,552.084 854.315,554.288 864.721,558.528 875.127,560.939 885.533,558.345 895.939,556.322 906.345,559.229 916.751,573.516 927.157,610.645 937.563,645.353 947.969,668.057 958.375,691.472 968.781,699.707 979.187,708.809 989.593,706.805 999.999,698.217 1010.41,684.52 1020.81,676.987 1031.22,673.915 1041.62,683.892 1052.03,708.767 1062.44,739.045 1072.84,765.288 1083.25,792.384 1093.65,826.477 1104.06,855.92 1114.47,880.383 1124.87,892.872 1135.28,898.745 1145.68,923.192 1156.09,949.463 1166.5,981.272 1176.9,1012.77 1187.31,1027.88 1197.71,1025.28 1208.12,1022.29 1218.53,1007.2 1228.93,1000.37 1239.34,989.439 1249.74,977.522 1260.15,973.061 1270.56,962.388 1280.96,959.175 1291.37,964.946 1301.77,964.731 1312.18,960.183 1322.59,951.922 1332.99,962.303 1343.4,971.702 1353.8,978.102 1364.21,998.983 1374.62,1029.47 1385.02,1054.95 1395.43,1058.91 1405.83,1048.16 1416.24,1021.86 1426.64,989.437 1437.05,953.916 1447.46,929.352 1457.86,917.93 1468.27,923.002 1478.67,932.48 1489.08,959.229 1499.49,968.099 1509.89,981.186 1520.3,988.51 1530.7,978.113 1541.11,963.074 1551.52,942.929 1561.92,901.453 1572.33,852.513 1582.73,804.904 1593.14,771.806 1603.55,731.641 1613.95,715.097 1624.36,726.888 1634.76,744.732 1645.17,754.125 1655.58,769.037 1665.98,794.745 1676.39,805.622 1686.79,824.688 1697.2,839.435 1707.61,844.423 1718.01,857.5 1728.42,879.914 1738.82,911.458 1749.23,941.864 1759.64,962.962 1770.04,979.392 1780.45,997.152 1790.85,1019.05 1801.26,1026.94 1811.67,1022.57 1822.07,1015.89 1832.48,1005.61 1842.88,1009.99 1853.29,1022.71 1863.7,1023.95 1874.1,1017.23 1884.51,995.562 1894.91,981.378 1905.32,991.004 1915.73,1008.87 1926.13,1027.66 1936.54,1061.3 1946.94,1088.19 1957.35,1110.84 1967.76,1135.23 1978.16,1175.79 1988.57,1220.92 1998.97,1257.13 2009.38,1288.08 2019.79,1324.12 2030.19,1353.77 2040.6,1386.29 2051,1407.99 2061.41,1427.76 2071.82,1447.2 2082.22,1447.87 2092.63,1435.55 2103.03,1421.12 2113.44,1406.7 2123.85,1400.39 2134.25,1387.34 2144.66,1380.96 2155.06,1367.87 2165.47,1364.6 2175.88,1368.08 2186.28,1359.7 2196.69,1337.47 2207.09,1299.13 2217.5,1262.54 2227.91,1228.41 2238.31,1187.93 2248.72,1129.74 2259.12,1068.08 2269.53,1015.71 2279.94,980.622 2290.34,949.83 "></polyline>
<polyline clip-path="url(#clip132)" style="stroke:#3da44d; stroke-linecap:round; stroke-linejoin:round; stroke-width:4; stroke-opacity:0.5; fill:none" points="219.55,641.731 229.956,637.998 240.362,632.515 250.768,633.475 261.174,630.535 271.58,624.094 281.986,612.379 292.392,592.883 302.798,571.275 313.204,553.408 323.61,529.623 334.016,519.116 344.422,497.512 354.828,481.891 365.234,467.202 375.64,448.827 386.046,433.296 396.452,419.678 406.858,399.164 417.264,391.223 427.67,376.308 438.076,362.392 448.482,358.279 458.888,363.966 469.294,381.886 479.7,395.146 490.106,390.879 500.512,388.462 510.918,363.629 521.324,336.507 531.73,312.383 542.136,302.729 552.542,300.852 562.948,303.351 573.354,304.392 583.76,309.937 594.166,308.611 604.572,316.768 614.978,325.836 625.384,347.073 635.79,365.686 646.196,385.734 656.602,399.108 667.008,400.21 677.413,398.927 687.819,385.88 698.225,389.112 708.631,385.903 719.037,386.789 729.443,381.861 739.849,357.341 750.255,329.455 760.661,315.819 771.067,316.058 781.473,346.217 791.879,377.768 802.285,412.553 812.691,460.907 823.097,509.526 833.503,561.417 843.909,608.326 854.315,665.164 864.721,712.618 875.127,749.739 885.533,760.224 895.939,764.259 906.345,755.089 916.751,736.843 927.157,731.55 937.563,721.248 947.969,701.213 958.375,676.742 968.781,646.085 979.187,632.28 989.593,627.002 999.999,633.311 1010.41,644.323 1020.81,677.428 1031.22,719.073 1041.62,754.891 1052.03,786.315 1062.44,804.275 1072.84,823.624 1083.25,852.289 1093.65,871.995 1104.06,881.692 1114.47,878.671 1124.87,870.878 1135.28,875.666 1145.68,872.406 1156.09,872.248 1166.5,876.841 1176.9,875.689 1187.31,878.819 1197.71,879.129 1208.12,889.461 1218.53,902.887 1228.93,923.929 1239.34,946.836 1249.74,967.073 1260.15,971.429 1270.56,977.547 1280.96,988.106 1291.37,1000.25 1301.77,1020.97 1312.18,1029.23 1322.59,1023.39 1332.99,1020.88 1343.4,1029.46 1353.8,1024.42 1364.21,1015.41 1374.62,1007.99 1385.02,1004.5 1395.43,993.806 1405.83,981.189 1416.24,978.2 1426.64,979.204 1437.05,971.143 1447.46,967.691 1457.86,959.86 1468.27,961.732 1478.67,967.113 1489.08,979.969 1499.49,997.47 1509.89,1011.34 1520.3,995.113 1530.7,968.554 1541.11,924.178 1551.52,887.455 1561.92,859.158 1572.33,847.961 1582.73,847.041 1593.14,835.832 1603.55,829.843 1613.95,827.333 1624.36,829.843 1634.76,838.236 1645.17,853.877 1655.58,852.392 1665.98,843.091 1676.39,823.055 1686.79,807.265 1697.2,792.852 1707.61,775.231 1718.01,752.829 1728.42,741.065 1738.82,743.575 1749.23,760.315 1759.64,778.455 1770.04,776.597 1780.45,786.863 1790.85,808.286 1801.26,828.252 1811.67,845.593 1822.07,864.099 1832.48,885.024 1842.88,925.245 1853.29,968.404 1863.7,994.11 1874.1,1014.24 1884.51,1026.7 1894.91,1048.23 1905.32,1079.09 1915.73,1103.88 1926.13,1113.28 1936.54,1106.94 1946.94,1087.35 1957.35,1063.36 1967.76,1028.42 1978.16,983.241 1988.57,931.832 1998.97,898.913 2009.38,871.067 2019.79,848.019 2030.19,833.725 2040.6,814.612 2051,793.008 2061.41,764.263 2071.82,729.711 2082.22,693.748 2092.63,678.642 2103.03,663 2113.44,643.922 2123.85,614.999 2134.25,597.525 2144.66,589.416 2155.06,595.047 2165.47,604.003 2175.88,619.721 2186.28,623.306 2196.69,633.652 2207.09,642.708 2217.5,634.274 2227.91,627.657 2238.31,604.613 2248.72,582.677 2259.12,562.076 2269.53,546.148 2279.94,531.25 2290.34,517.185 "></polyline>
<polyline clip-path="url(#clip132)" style="stroke:#3da44d; stroke-linecap:round; stroke-linejoin:round; stroke-width:4; stroke-opacity:0.5; fill:none" points="219.55,636.716 229.956,651.914 240.362,645.913 250.768,646.195 261.174,642.427 271.58,613.429 281.986,590.421 292.392,564.986 302.798,544.309 313.204,518.567 323.61,501.413 334.016,483.278 344.422,472.457 354.828,467.013 365.234,452.605 375.64,436.822 386.046,424.73 396.452,411.835 406.858,391.23 417.264,384.753 427.67,379.277 438.076,360.443 448.482,343.471 458.888,328.072 469.294,319.655 479.7,326.464 490.106,335.683 500.512,345.74 510.918,359.636 521.324,372.466 531.73,388.638 542.136,399.396 552.542,398.878 562.948,391.798 573.354,378.717 583.76,374.583 594.166,382.442 604.572,388.338 614.978,389.295 625.384,395.724 635.79,395.872 646.196,395.277 656.602,402.253 667.008,395.127 677.413,381.519 687.819,378.472 698.225,370.414 708.631,367.659 719.037,377.38 729.443,393.644 739.849,412.005 750.255,420.533 760.661,434.505 771.067,441.406 781.473,446.427 791.879,459.373 802.285,477.625 812.691,493.418 823.097,512.84 833.503,533.604 843.909,542.803 854.315,548.713 864.721,554.121 875.127,556.234 885.533,563.942 895.939,568.347 906.345,577.77 916.751,588.996 927.157,606.621 937.563,623.975 947.969,625.495 958.375,627.202 968.781,638.399 979.187,643.762 989.593,655.339 999.999,673.112 1010.41,689.1 1020.81,700.344 1031.22,702.034 1041.62,710.946 1052.03,723.287 1062.44,759.199 1072.84,792.472 1083.25,816.915 1093.65,848.49 1104.06,873.735 1114.47,899.467 1124.87,909.541 1135.28,917.317 1145.68,926.59 1156.09,936.441 1166.5,945.048 1176.9,947.175 1187.31,941.512 1197.71,917.414 1208.12,891.618 1218.53,890.094 1228.93,892.501 1239.34,901.711 1249.74,900.85 1260.15,914.232 1270.56,949.345 1280.96,988.996 1291.37,1030.16 1301.77,1053.94 1312.18,1048.9 1322.59,1037.7 1332.99,1026.96 1343.4,1020.65 1353.8,1009.71 1364.21,998.311 1374.62,1004.66 1385.02,1005.35 1395.43,1002.7 1405.83,1002.8 1416.24,1003.68 1426.64,990.927 1437.05,979.774 1447.46,961.438 1457.86,939.647 1468.27,932.02 1478.67,932.324 1489.08,943.002 1499.49,957.458 1509.89,969.404 1520.3,976.476 1530.7,986.107 1541.11,978.29 1551.52,945.876 1561.92,904.233 1572.33,862.048 1582.73,821.768 1593.14,792.604 1603.55,781.768 1613.95,779.058 1624.36,788.643 1634.76,797.47 1645.17,800.653 1655.58,800.667 1665.98,797.654 1676.39,775.19 1686.79,745.594 1697.2,713.253 1707.61,672.336 1718.01,620.958 1728.42,564.556 1738.82,515.469 1749.23,471.156 1759.64,442.035 1770.04,421.388 1780.45,404.879 1790.85,410.89 1801.26,415.857 1811.67,430.971 1822.07,445.684 1832.48,450.036 1842.88,462.633 1853.29,476.882 1863.7,493.462 1874.1,509.861 1884.51,518.248 1894.91,530.107 1905.32,554.213 1915.73,587.52 1926.13,619.048 1936.54,651.532 1946.94,689.865 1957.35,727.285 1967.76,758.765 1978.16,773.02 1988.57,778.201 1998.97,782.572 2009.38,796.827 2019.79,814.009 2030.19,828.909 2040.6,843.839 2051,858.362 2061.41,874.398 2071.82,883.145 2082.22,883.314 2092.63,869.748 2103.03,854.848 2113.44,843.332 2123.85,851.145 2134.25,869.25 2144.66,885.503 2155.06,898.288 2165.47,904.04 2175.88,918.407 2186.28,929.906 2196.69,940.465 2207.09,956.606 2217.5,970.18 2227.91,984.727 2238.31,987.435 2248.72,990.069 2259.12,994.758 2269.53,1011.88 2279.94,1027.22 2290.34,1036.75 "></polyline>
<polyline clip-path="url(#clip132)" style="stroke:#3da44d; stroke-linecap:round; stroke-linejoin:round; stroke-width:4; stroke-opacity:0.5; fill:none" points="219.55,623.34 229.956,610.831 240.362,600.12 250.768,591.079 261.174,592.335 271.58,584.671 281.986,574.935 292.392,558.57 302.798,538.843 313.204,523.063 323.61,505.515 334.016,500.132 344.422,494.236 354.828,478.71 365.234,454.396 375.64,435.161 386.046,415.867 396.452,406.956 406.858,407.502 417.264,403.868 427.67,401.219 438.076,405.771 448.482,409.695 458.888,402.521 469.294,395.591 479.7,382.718 490.106,374.116 500.512,372.78 510.918,375.933 521.324,359.685 531.73,338.158 542.136,320.966 552.542,320.128 562.948,316.365 573.354,315.069 583.76,315.732 594.166,321.589 604.572,322.475 614.978,311.779 625.384,310.41 635.79,318.522 646.196,328.188 656.602,343.798 667.008,363.48 677.413,383.617 687.819,392.41 698.225,393.602 708.631,382.38 719.037,378.364 729.443,379.948 739.849,373.378 750.255,367.302 760.661,365.068 771.067,352.638 781.473,351.185 791.879,361.179 802.285,366.308 812.691,381.052 823.097,406.987 833.503,445.139 843.909,489.737 854.315,532.843 864.721,556.032 875.127,585.771 885.533,606.702 895.939,620.464 906.345,631.611 916.751,639.809 927.157,646.012 937.563,657.343 947.969,651.521 958.375,645.683 968.781,649.468 979.187,664.738 989.593,673.125 999.999,684.454 1010.41,700.893 1020.81,727.343 1031.22,760.265 1041.62,786.829 1052.03,804.03 1062.44,814.716 1072.84,810.357 1083.25,819.846 1093.65,824.323 1104.06,829.972 1114.47,819.192 1124.87,825.519 1135.28,856.8 1145.68,882.632 1156.09,905.872 1166.5,921.859 1176.9,939.41 1187.31,960.475 1197.71,973.539 1208.12,968.593 1218.53,958.7 1228.93,948.636 1239.34,945.286 1249.74,949.468 1260.15,949.426 1270.56,962.462 1280.96,994.669 1291.37,1022.77 1301.77,1036.56 1312.18,1023.49 1322.59,998.412 1332.99,967.228 1343.4,928.435 1353.8,897.388 1364.21,864.865 1374.62,849.066 1385.02,856.91 1395.43,880.02 1405.83,912.683 1416.24,936.686 1426.64,954.092 1437.05,970.266 1447.46,979.087 1457.86,980.583 1468.27,981.913 1478.67,978.642 1489.08,981.015 1499.49,978.39 1509.89,961.717 1520.3,947.59 1530.7,931.135 1541.11,910.261 1551.52,885.312 1561.92,861.092 1572.33,849.865 1582.73,846.391 1593.14,847.138 1603.55,852.531 1613.95,852.565 1624.36,851.89 1634.76,840.019 1645.17,825.354 1655.58,814.385 1665.98,806.815 1676.39,796.295 1686.79,778.945 1697.2,771.565 1707.61,776.727 1718.01,784.336 1728.42,780.128 1738.82,772.605 1749.23,759.742 1759.64,743.564 1770.04,737.064 1780.45,731.52 1790.85,724.451 1801.26,722.076 1811.67,721.527 1822.07,732.538 1832.48,755.32 1842.88,795.634 1853.29,833.218 1863.7,865.722 1874.1,895.727 1884.51,916.042 1894.91,940.875 1905.32,961.419 1915.73,969.859 1926.13,990.16 1936.54,1019.7 1946.94,1046.23 1957.35,1071.54 1967.76,1103.05 1978.16,1132.62 1988.57,1158.67 1998.97,1187.64 2009.38,1222.23 2019.79,1260.04 2030.19,1288.05 2040.6,1314.16 2051,1334.54 2061.41,1352.14 2071.82,1357.04 2082.22,1349.63 2092.63,1331.99 2103.03,1318.03 2113.44,1309.97 2123.85,1294.37 2134.25,1273.44 2144.66,1243.68 2155.06,1208.69 2165.47,1176.17 2175.88,1145.32 2186.28,1120.22 2196.69,1098.29 2207.09,1082.41 2217.5,1070.99 2227.91,1066.55 2238.31,1059.69 2248.72,1049.14 2259.12,1029.89 2269.53,1011.85 2279.94,991.692 2290.34,983.183 "></polyline>
<polyline clip-path="url(#clip132)" style="stroke:#3da44d; stroke-linecap:round; stroke-linejoin:round; stroke-width:4; stroke-opacity:0.5; fill:none" points="219.55,653.335 229.956,649.153 240.362,638.44 250.768,615.015 261.174,591.735 271.58,577.54 281.986,557.848 292.392,542.234 302.798,531.006 313.204,526.642 323.61,520.422 334.016,516.278 344.422,504.148 354.828,491.047 365.234,471.557 375.64,455.634 386.046,428.235 396.452,401.595 406.858,396.028 417.264,394.048 427.67,388.163 438.076,375.248 448.482,365.771 458.888,351.564 469.294,338.884 479.7,323.054 490.106,308.656 500.512,308.767 510.918,330.689 521.324,351.511 531.73,367.553 542.136,369.921 552.542,368.656 562.948,363.654 573.354,353.557 583.76,349.552 594.166,358.403 604.572,371.957 614.978,378.094 625.384,382.367 635.79,389.259 646.196,392.183 656.602,394.617 667.008,390.078 677.413,388.753 687.819,392.343 698.225,394.029 708.631,385.494 719.037,374.617 729.443,364.318 739.849,365.912 750.255,384.693 760.661,403.355 771.067,410.656 781.473,422.42 791.879,437.4 802.285,455.887 812.691,505.479 823.097,555.158 833.503,585.032 843.909,595.803 854.315,602.32 864.721,610.474 875.127,607.029 885.533,596.497 895.939,595.252 906.345,594.364 916.751,598.034 927.157,608.274 937.563,625.631 947.969,634.775 958.375,646.406 968.781,662.755 979.187,686.04 989.593,695.645 999.999,699.206 1010.41,692.496 1020.81,682.976 1031.22,693.004 1041.62,718.41 1052.03,750.747 1062.44,766.966 1072.84,784.627 1083.25,806.17 1093.65,831.869 1104.06,855.809 1114.47,870.513 1124.87,877.767 1135.28,887.678 1145.68,893.835 1156.09,902.744 1166.5,892.503 1176.9,882.973 1187.31,880.637 1197.71,887.174 1208.12,892.16 1218.53,894.006 1228.93,908.838 1239.34,924.921 1249.74,918.306 1260.15,914.583 1270.56,924.531 1280.96,953.558 1291.37,990.157 1301.77,1000.59 1312.18,1005.82 1322.59,1023.3 1332.99,1045.92 1343.4,1062.41 1353.8,1071.62 1364.21,1067 1374.62,1042.42 1385.02,1022.1 1395.43,1008.32 1405.83,1004.07 1416.24,993.652 1426.64,985.026 1437.05,975.962 1447.46,954.105 1457.86,951.272 1468.27,962.307 1478.67,970.655 1489.08,969.116 1499.49,963.016 1509.89,965.988 1520.3,961.507 1530.7,957.847 1541.11,940.213 1551.52,925.123 1561.92,908.564 1572.33,889.825 1582.73,865.833 1593.14,837.337 1603.55,820.925 1613.95,802.002 1624.36,787.605 1634.76,771.569 1645.17,763.971 1655.58,764.485 1665.98,768.245 1676.39,783.465 1686.79,780.995 1697.2,793.699 1707.61,806.828 1718.01,812.626 1728.42,806.779 1738.82,803.531 1749.23,799.127 1759.64,796.325 1770.04,785.9 1780.45,781.738 1790.85,778.956 1801.26,770.368 1811.67,759.506 1822.07,750.46 1832.48,744.538 1842.88,751.093 1853.29,760.748 1863.7,755.595 1874.1,729.27 1884.51,701.159 1894.91,657.099 1905.32,603.922 1915.73,565.355 1926.13,529.975 1936.54,494.083 1946.94,443.413 1957.35,400.08 1967.76,380.117 1978.16,374.833 1988.57,383.594 1998.97,415.84 2009.38,453.665 2019.79,484.138 2030.19,496.044 2040.6,505.901 2051,507.538 2061.41,509.024 2071.82,500.817 2082.22,483.349 2092.63,472.064 2103.03,466.139 2113.44,466.27 2123.85,463.767 2134.25,456.455 2144.66,458.383 2155.06,466.845 2165.47,473.673 2175.88,479.735 2186.28,494.395 2196.69,486.12 2207.09,472.644 2217.5,448.034 2227.91,414.782 2238.31,387.65 2248.72,363.411 2259.12,346.032 2269.53,349.221 2279.94,363.089 2290.34,395.412 "></polyline>
<circle clip-path="url(#clip132)" cx="1028.93" cy="713.192" r="14.4" fill="#e26f46" fill-rule="evenodd" fill-opacity="1" stroke="#000000" stroke-opacity="1" stroke-width="3.2"></circle>
<circle clip-path="url(#clip132)" cx="330.065" cy="520.311" r="14.4" fill="#e26f46" fill-rule="evenodd" fill-opacity="1" stroke="#000000" stroke-opacity="1" stroke-width="3.2"></circle>
<circle clip-path="url(#clip132)" cx="989.093" cy="665.106" r="14.4" fill="#e26f46" fill-rule="evenodd" fill-opacity="1" stroke="#000000" stroke-opacity="1" stroke-width="3.2"></circle>
<circle clip-path="url(#clip132)" cx="1458.15" cy="956.926" r="14.4" fill="#e26f46" fill-rule="evenodd" fill-opacity="1" stroke="#000000" stroke-opacity="1" stroke-width="3.2"></circle>
<circle clip-path="url(#clip132)" cx="986.34" cy="709.453" r="14.4" fill="#e26f46" fill-rule="evenodd" fill-opacity="1" stroke="#000000" stroke-opacity="1" stroke-width="3.2"></circle>
<circle clip-path="url(#clip132)" cx="224.893" cy="660.03" r="14.4" fill="#e26f46" fill-rule="evenodd" fill-opacity="1" stroke="#000000" stroke-opacity="1" stroke-width="3.2"></circle>
<circle clip-path="url(#clip132)" cx="810.218" cy="390.978" r="14.4" fill="#e26f46" fill-rule="evenodd" fill-opacity="1" stroke="#000000" stroke-opacity="1" stroke-width="3.2"></circle>
<circle clip-path="url(#clip132)" cx="390.603" cy="381.467" r="14.4" fill="#e26f46" fill-rule="evenodd" fill-opacity="1" stroke="#000000" stroke-opacity="1" stroke-width="3.2"></circle>
<circle clip-path="url(#clip132)" cx="996.067" cy="678.525" r="14.4" fill="#e26f46" fill-rule="evenodd" fill-opacity="1" stroke="#000000" stroke-opacity="1" stroke-width="3.2"></circle>
<circle clip-path="url(#clip132)" cx="1568.4" cy="900.862" r="14.4" fill="#e26f46" fill-rule="evenodd" fill-opacity="1" stroke="#000000" stroke-opacity="1" stroke-width="3.2"></circle>
<circle clip-path="url(#clip132)" cx="702.702" cy="363.706" r="14.4" fill="#e26f46" fill-rule="evenodd" fill-opacity="1" stroke="#000000" stroke-opacity="1" stroke-width="3.2"></circle>
<circle clip-path="url(#clip132)" cx="724.204" cy="365.942" r="14.4" fill="#e26f46" fill-rule="evenodd" fill-opacity="1" stroke="#000000" stroke-opacity="1" stroke-width="3.2"></circle>
<circle clip-path="url(#clip132)" cx="993.411" cy="671.584" r="14.4" fill="#e26f46" fill-rule="evenodd" fill-opacity="1" stroke="#000000" stroke-opacity="1" stroke-width="3.2"></circle>
<circle clip-path="url(#clip132)" cx="1633.49" cy="800.582" r="14.4" fill="#e26f46" fill-rule="evenodd" fill-opacity="1" stroke="#000000" stroke-opacity="1" stroke-width="3.2"></circle>
<circle clip-path="url(#clip132)" cx="237.698" cy="567.267" r="14.4" fill="#e26f46" fill-rule="evenodd" fill-opacity="1" stroke="#000000" stroke-opacity="1" stroke-width="3.2"></circle>
<circle clip-path="url(#clip132)" cx="745.972" cy="388.501" r="14.4" fill="#e26f46" fill-rule="evenodd" fill-opacity="1" stroke="#000000" stroke-opacity="1" stroke-width="3.2"></circle>
<circle clip-path="url(#clip132)" cx="331.592" cy="534.154" r="14.4" fill="#e26f46" fill-rule="evenodd" fill-opacity="1" stroke="#000000" stroke-opacity="1" stroke-width="3.2"></circle>
<circle clip-path="url(#clip132)" cx="1146.36" cy="882.626" r="14.4" fill="#e26f46" fill-rule="evenodd" fill-opacity="1" stroke="#000000" stroke-opacity="1" stroke-width="3.2"></circle>
<circle clip-path="url(#clip132)" cx="1449.56" cy="941.801" r="14.4" fill="#e26f46" fill-rule="evenodd" fill-opacity="1" stroke="#000000" stroke-opacity="1" stroke-width="3.2"></circle>
<circle clip-path="url(#clip132)" cx="1516.31" cy="975.507" r="14.4" fill="#e26f46" fill-rule="evenodd" fill-opacity="1" stroke="#000000" stroke-opacity="1" stroke-width="3.2"></circle>
<circle clip-path="url(#clip132)" cx="1327.16" cy="1014.07" r="14.4" fill="#e26f46" fill-rule="evenodd" fill-opacity="1" stroke="#000000" stroke-opacity="1" stroke-width="3.2"></circle>
<circle clip-path="url(#clip132)" cx="399.236" cy="417.928" r="14.4" fill="#e26f46" fill-rule="evenodd" fill-opacity="1" stroke="#000000" stroke-opacity="1" stroke-width="3.2"></circle>
<circle clip-path="url(#clip132)" cx="1531.38" cy="964.77" r="14.4" fill="#e26f46" fill-rule="evenodd" fill-opacity="1" stroke="#000000" stroke-opacity="1" stroke-width="3.2"></circle>
<circle clip-path="url(#clip132)" cx="1689.03" cy="770.498" r="14.4" fill="#e26f46" fill-rule="evenodd" fill-opacity="1" stroke="#000000" stroke-opacity="1" stroke-width="3.2"></circle>
<circle clip-path="url(#clip132)" cx="1451.92" cy="929.632" r="14.4" fill="#e26f46" fill-rule="evenodd" fill-opacity="1" stroke="#000000" stroke-opacity="1" stroke-width="3.2"></circle>
<circle clip-path="url(#clip132)" cx="1677.21" cy="812.192" r="14.4" fill="#e26f46" fill-rule="evenodd" fill-opacity="1" stroke="#000000" stroke-opacity="1" stroke-width="3.2"></circle>
<circle clip-path="url(#clip132)" cx="484.408" cy="359.352" r="14.4" fill="#e26f46" fill-rule="evenodd" fill-opacity="1" stroke="#000000" stroke-opacity="1" stroke-width="3.2"></circle>
<circle clip-path="url(#clip132)" cx="410.516" cy="400.534" r="14.4" fill="#e26f46" fill-rule="evenodd" fill-opacity="1" stroke="#000000" stroke-opacity="1" stroke-width="3.2"></circle>
<circle clip-path="url(#clip132)" cx="429.218" cy="402.427" r="14.4" fill="#e26f46" fill-rule="evenodd" fill-opacity="1" stroke="#000000" stroke-opacity="1" stroke-width="3.2"></circle>
<circle clip-path="url(#clip132)" cx="447.337" cy="337.974" r="14.4" fill="#e26f46" fill-rule="evenodd" fill-opacity="1" stroke="#000000" stroke-opacity="1" stroke-width="3.2"></circle>
<circle clip-path="url(#clip132)" cx="1268.57" cy="962.717" r="14.4" fill="#e26f46" fill-rule="evenodd" fill-opacity="1" stroke="#000000" stroke-opacity="1" stroke-width="3.2"></circle>
<circle clip-path="url(#clip132)" cx="1515.38" cy="947.803" r="14.4" fill="#e26f46" fill-rule="evenodd" fill-opacity="1" stroke="#000000" stroke-opacity="1" stroke-width="3.2"></circle>
<circle clip-path="url(#clip132)" cx="1683.85" cy="729.992" r="14.4" fill="#e26f46" fill-rule="evenodd" fill-opacity="1" stroke="#000000" stroke-opacity="1" stroke-width="3.2"></circle>
<circle clip-path="url(#clip132)" cx="562.138" cy="336.216" r="14.4" fill="#e26f46" fill-rule="evenodd" fill-opacity="1" stroke="#000000" stroke-opacity="1" stroke-width="3.2"></circle>
<circle clip-path="url(#clip132)" cx="455.404" cy="422.09" r="14.4" fill="#e26f46" fill-rule="evenodd" fill-opacity="1" stroke="#000000" stroke-opacity="1" stroke-width="3.2"></circle>
<circle clip-path="url(#clip132)" cx="309.609" cy="541.64" r="14.4" fill="#e26f46" fill-rule="evenodd" fill-opacity="1" stroke="#000000" stroke-opacity="1" stroke-width="3.2"></circle>
<circle clip-path="url(#clip132)" cx="1419.18" cy="986.818" r="14.4" fill="#e26f46" fill-rule="evenodd" fill-opacity="1" stroke="#000000" stroke-opacity="1" stroke-width="3.2"></circle>
<circle clip-path="url(#clip132)" cx="1227.88" cy="948.803" r="14.4" fill="#e26f46" fill-rule="evenodd" fill-opacity="1" stroke="#000000" stroke-opacity="1" stroke-width="3.2"></circle>
<circle clip-path="url(#clip132)" cx="298.261" cy="564.494" r="14.4" fill="#e26f46" fill-rule="evenodd" fill-opacity="1" stroke="#000000" stroke-opacity="1" stroke-width="3.2"></circle>
<circle clip-path="url(#clip132)" cx="1630.42" cy="830.837" r="14.4" fill="#e26f46" fill-rule="evenodd" fill-opacity="1" stroke="#000000" stroke-opacity="1" stroke-width="3.2"></circle>
<circle clip-path="url(#clip132)" cx="1083.51" cy="805.321" r="14.4" fill="#e26f46" fill-rule="evenodd" fill-opacity="1" stroke="#000000" stroke-opacity="1" stroke-width="3.2"></circle>
<circle clip-path="url(#clip132)" cx="257.401" cy="613.326" r="14.4" fill="#e26f46" fill-rule="evenodd" fill-opacity="1" stroke="#000000" stroke-opacity="1" stroke-width="3.2"></circle>
<circle clip-path="url(#clip132)" cx="324.955" cy="504.472" r="14.4" fill="#e26f46" fill-rule="evenodd" fill-opacity="1" stroke="#000000" stroke-opacity="1" stroke-width="3.2"></circle>
<circle clip-path="url(#clip132)" cx="949.339" cy="638.645" r="14.4" fill="#e26f46" fill-rule="evenodd" fill-opacity="1" stroke="#000000" stroke-opacity="1" stroke-width="3.2"></circle>
<circle clip-path="url(#clip132)" cx="269.211" cy="587.878" r="14.4" fill="#e26f46" fill-rule="evenodd" fill-opacity="1" stroke="#000000" stroke-opacity="1" stroke-width="3.2"></circle>
<circle clip-path="url(#clip132)" cx="1569.62" cy="818.956" r="14.4" fill="#e26f46" fill-rule="evenodd" fill-opacity="1" stroke="#000000" stroke-opacity="1" stroke-width="3.2"></circle>
<circle clip-path="url(#clip132)" cx="324.013" cy="461.815" r="14.4" fill="#e26f46" fill-rule="evenodd" fill-opacity="1" stroke="#000000" stroke-opacity="1" stroke-width="3.2"></circle>
<circle clip-path="url(#clip132)" cx="1493.22" cy="964.195" r="14.4" fill="#e26f46" fill-rule="evenodd" fill-opacity="1" stroke="#000000" stroke-opacity="1" stroke-width="3.2"></circle>
<circle clip-path="url(#clip132)" cx="209.891" cy="639.633" r="14.4" fill="#e26f46" fill-rule="evenodd" fill-opacity="1" stroke="#000000" stroke-opacity="1" stroke-width="3.2"></circle>
<circle clip-path="url(#clip132)" cx="406.411" cy="392.2" r="14.4" fill="#e26f46" fill-rule="evenodd" fill-opacity="1" stroke="#000000" stroke-opacity="1" stroke-width="3.2"></circle>
<path clip-path="url(#clip130)" d="M220.987 1441.02 L650.449 1441.02 L650.449 1233.66 L220.987 1233.66  Z" fill="#ffffff" fill-rule="evenodd" fill-opacity="1"></path>
<polyline clip-path="url(#clip130)" style="stroke:#000000; stroke-linecap:round; stroke-linejoin:round; stroke-width:4; stroke-opacity:1; fill:none" points="220.987,1441.02 650.449,1441.02 650.449,1233.66 220.987,1233.66 220.987,1441.02 "></polyline>
<polyline clip-path="url(#clip130)" style="stroke:#009af9; stroke-linecap:round; stroke-linejoin:round; stroke-width:8; stroke-opacity:1; fill:none" points="245.49,1285.5 392.509,1285.5 "></polyline>
<path clip-path="url(#clip130)" d="M444.882 1270.88 L444.882 1275.81 Q442.521 1273.61 439.836 1272.52 Q437.174 1271.43 434.165 1271.43 Q428.239 1271.43 425.091 1275.07 Q421.942 1278.68 421.942 1285.53 Q421.942 1292.36 425.091 1295.99 Q428.239 1299.6 434.165 1299.6 Q437.174 1299.6 439.836 1298.52 Q442.521 1297.43 444.882 1295.23 L444.882 1300.11 Q442.428 1301.78 439.674 1302.61 Q436.942 1303.45 433.887 1303.45 Q426.04 1303.45 421.526 1298.66 Q417.012 1293.84 417.012 1285.53 Q417.012 1277.2 421.526 1272.41 Q426.04 1267.59 433.887 1267.59 Q436.989 1267.59 439.72 1268.42 Q442.475 1269.23 444.882 1270.88 Z" fill="#000000" fill-rule="nonzero" fill-opacity="1"></path><path clip-path="url(#clip130)" d="M473.47 1287.13 L473.47 1302.78 L469.211 1302.78 L469.211 1287.27 Q469.211 1283.59 467.776 1281.76 Q466.34 1279.93 463.47 1279.93 Q460.021 1279.93 458.03 1282.13 Q456.039 1284.33 456.039 1288.12 L456.039 1302.78 L451.757 1302.78 L451.757 1266.76 L456.039 1266.76 L456.039 1280.88 Q457.567 1278.54 459.627 1277.38 Q461.711 1276.22 464.419 1276.22 Q468.887 1276.22 471.178 1279 Q473.47 1281.76 473.47 1287.13 Z" fill="#000000" fill-rule="nonzero" fill-opacity="1"></path><path clip-path="url(#clip130)" d="M492.011 1279.84 Q488.586 1279.84 486.595 1282.52 Q484.604 1285.18 484.604 1289.84 Q484.604 1294.49 486.572 1297.17 Q488.562 1299.84 492.011 1299.84 Q495.414 1299.84 497.405 1297.15 Q499.396 1294.47 499.396 1289.84 Q499.396 1285.23 497.405 1282.54 Q495.414 1279.84 492.011 1279.84 M492.011 1276.22 Q497.567 1276.22 500.738 1279.84 Q503.91 1283.45 503.91 1289.84 Q503.91 1296.2 500.738 1299.84 Q497.567 1303.45 492.011 1303.45 Q486.433 1303.45 483.262 1299.84 Q480.113 1296.2 480.113 1289.84 Q480.113 1283.45 483.262 1279.84 Q486.433 1276.22 492.011 1276.22 Z" fill="#000000" fill-rule="nonzero" fill-opacity="1"></path><path clip-path="url(#clip130)" d="M510.97 1266.76 L515.229 1266.76 L515.229 1302.78 L510.97 1302.78 L510.97 1266.76 Z" fill="#000000" fill-rule="nonzero" fill-opacity="1"></path><path clip-path="url(#clip130)" d="M546.317 1288.75 L546.317 1290.83 L526.734 1290.83 Q527.011 1295.23 529.372 1297.54 Q531.757 1299.84 535.993 1299.84 Q538.446 1299.84 540.738 1299.23 Q543.053 1298.63 545.321 1297.43 L545.321 1301.46 Q543.03 1302.43 540.622 1302.94 Q538.215 1303.45 535.738 1303.45 Q529.534 1303.45 525.9 1299.84 Q522.289 1296.22 522.289 1290.07 Q522.289 1283.7 525.715 1279.97 Q529.164 1276.22 534.997 1276.22 Q540.229 1276.22 543.261 1279.6 Q546.317 1282.96 546.317 1288.75 M542.058 1287.5 Q542.011 1284 540.09 1281.92 Q538.192 1279.84 535.044 1279.84 Q531.479 1279.84 529.326 1281.85 Q527.196 1283.86 526.872 1287.52 L542.058 1287.5 Z" fill="#000000" fill-rule="nonzero" fill-opacity="1"></path><path clip-path="url(#clip130)" d="M569.835 1277.61 L569.835 1281.64 Q568.03 1280.72 566.085 1280.25 Q564.141 1279.79 562.057 1279.79 Q558.886 1279.79 557.289 1280.76 Q555.715 1281.73 555.715 1283.68 Q555.715 1285.16 556.849 1286.02 Q557.983 1286.85 561.409 1287.61 L562.868 1287.94 Q567.405 1288.91 569.303 1290.69 Q571.224 1292.45 571.224 1295.62 Q571.224 1299.23 568.354 1301.34 Q565.506 1303.45 560.506 1303.45 Q558.423 1303.45 556.155 1303.03 Q553.909 1302.64 551.409 1301.83 L551.409 1297.43 Q553.77 1298.66 556.062 1299.28 Q558.354 1299.88 560.599 1299.88 Q563.608 1299.88 565.229 1298.86 Q566.849 1297.82 566.849 1295.95 Q566.849 1294.21 565.669 1293.28 Q564.511 1292.36 560.553 1291.5 L559.071 1291.16 Q555.113 1290.32 553.354 1288.61 Q551.595 1286.87 551.595 1283.86 Q551.595 1280.21 554.187 1278.22 Q556.78 1276.22 561.548 1276.22 Q563.909 1276.22 565.993 1276.57 Q568.076 1276.92 569.835 1277.61 Z" fill="#000000" fill-rule="nonzero" fill-opacity="1"></path><path clip-path="url(#clip130)" d="M577.844 1266.76 L582.127 1266.76 L582.127 1288.03 L594.835 1276.85 L600.275 1276.85 L586.525 1288.98 L600.853 1302.78 L595.298 1302.78 L582.127 1290.11 L582.127 1302.78 L577.844 1302.78 L577.844 1266.76 Z" fill="#000000" fill-rule="nonzero" fill-opacity="1"></path><path clip-path="url(#clip130)" d="M614.557 1305.18 Q612.752 1309.81 611.039 1311.22 Q609.326 1312.64 606.455 1312.64 L603.053 1312.64 L603.053 1309.07 L605.553 1309.07 Q607.312 1309.07 608.284 1308.24 Q609.256 1307.4 610.437 1304.3 L611.201 1302.36 L600.715 1276.85 L605.228 1276.85 L613.33 1297.13 L621.432 1276.85 L625.946 1276.85 L614.557 1305.18 Z" fill="#000000" fill-rule="nonzero" fill-opacity="1"></path><polyline clip-path="url(#clip130)" style="stroke:#3da44d; stroke-linecap:round; stroke-linejoin:round; stroke-width:8; stroke-opacity:1; fill:none" points="245.49,1337.34 392.509,1337.34 "></polyline>
<path clip-path="url(#clip130)" d="M444.882 1322.72 L444.882 1327.65 Q442.521 1325.45 439.836 1324.36 Q437.174 1323.27 434.165 1323.27 Q428.239 1323.27 425.091 1326.91 Q421.942 1330.52 421.942 1337.37 Q421.942 1344.2 425.091 1347.83 Q428.239 1351.44 434.165 1351.44 Q437.174 1351.44 439.836 1350.36 Q442.521 1349.27 444.882 1347.07 L444.882 1351.95 Q442.428 1353.62 439.674 1354.45 Q436.942 1355.29 433.887 1355.29 Q426.04 1355.29 421.526 1350.5 Q417.012 1345.68 417.012 1337.37 Q417.012 1329.04 421.526 1324.25 Q426.04 1319.43 433.887 1319.43 Q436.989 1319.43 439.72 1320.26 Q442.475 1321.07 444.882 1322.72 Z" fill="#000000" fill-rule="nonzero" fill-opacity="1"></path><path clip-path="url(#clip130)" d="M475.669 1349.68 L475.669 1340.4 L468.03 1340.4 L468.03 1336.56 L480.299 1336.56 L480.299 1351.4 Q477.59 1353.32 474.326 1354.31 Q471.063 1355.29 467.359 1355.29 Q459.257 1355.29 454.674 1350.56 Q450.114 1345.82 450.114 1337.37 Q450.114 1328.9 454.674 1324.18 Q459.257 1319.43 467.359 1319.43 Q470.738 1319.43 473.771 1320.26 Q476.826 1321.1 479.396 1322.72 L479.396 1327.69 Q476.803 1325.5 473.887 1324.38 Q470.97 1323.27 467.752 1323.27 Q461.41 1323.27 458.215 1326.81 Q455.044 1330.36 455.044 1337.37 Q455.044 1344.36 458.215 1347.9 Q461.41 1351.44 467.752 1351.44 Q470.229 1351.44 472.174 1351.03 Q474.118 1350.59 475.669 1349.68 Z" fill="#000000" fill-rule="nonzero" fill-opacity="1"></path><circle clip-path="url(#clip130)" cx="319" cy="1389.18" r="23.04" fill="#e26f46" fill-rule="evenodd" fill-opacity="1" stroke="#000000" stroke-opacity="1" stroke-width="5.12"></circle>
<path clip-path="url(#clip130)" d="M421.688 1375.74 L421.688 1402.61 L427.336 1402.61 Q434.489 1402.61 437.799 1399.37 Q441.132 1396.13 441.132 1389.14 Q441.132 1382.2 437.799 1378.98 Q434.489 1375.74 427.336 1375.74 L421.688 1375.74 M417.012 1371.9 L426.618 1371.9 Q436.665 1371.9 441.364 1376.09 Q446.063 1380.25 446.063 1389.14 Q446.063 1398.08 441.34 1402.27 Q436.618 1406.46 426.618 1406.46 L417.012 1406.46 L417.012 1371.9 Z" fill="#000000" fill-rule="nonzero" fill-opacity="1"></path><path clip-path="url(#clip130)" d="M465.113 1393.42 Q459.951 1393.42 457.961 1394.6 Q455.97 1395.78 455.97 1398.63 Q455.97 1400.9 457.451 1402.24 Q458.956 1403.56 461.526 1403.56 Q465.067 1403.56 467.197 1401.06 Q469.35 1398.54 469.35 1394.37 L469.35 1393.42 L465.113 1393.42 M473.609 1391.66 L473.609 1406.46 L469.35 1406.46 L469.35 1402.52 Q467.891 1404.88 465.715 1406.02 Q463.539 1407.13 460.391 1407.13 Q456.41 1407.13 454.049 1404.9 Q451.711 1402.66 451.711 1398.91 Q451.711 1394.53 454.627 1392.31 Q457.567 1390.09 463.377 1390.09 L469.35 1390.09 L469.35 1389.67 Q469.35 1386.73 467.405 1385.14 Q465.484 1383.52 461.989 1383.52 Q459.766 1383.52 457.66 1384.05 Q455.553 1384.58 453.609 1385.65 L453.609 1381.71 Q455.947 1380.81 458.146 1380.37 Q460.345 1379.9 462.428 1379.9 Q468.053 1379.9 470.831 1382.82 Q473.609 1385.74 473.609 1391.66 Z" fill="#000000" fill-rule="nonzero" fill-opacity="1"></path><path clip-path="url(#clip130)" d="M486.595 1373.17 L486.595 1380.53 L495.368 1380.53 L495.368 1383.84 L486.595 1383.84 L486.595 1397.91 Q486.595 1401.09 487.451 1401.99 Q488.331 1402.89 490.993 1402.89 L495.368 1402.89 L495.368 1406.46 L490.993 1406.46 Q486.062 1406.46 484.187 1404.63 Q482.312 1402.77 482.312 1397.91 L482.312 1383.84 L479.187 1383.84 L479.187 1380.53 L482.312 1380.53 L482.312 1373.17 L486.595 1373.17 Z" fill="#000000" fill-rule="nonzero" fill-opacity="1"></path><path clip-path="url(#clip130)" d="M512.752 1393.42 Q507.59 1393.42 505.599 1394.6 Q503.609 1395.78 503.609 1398.63 Q503.609 1400.9 505.09 1402.24 Q506.595 1403.56 509.164 1403.56 Q512.706 1403.56 514.835 1401.06 Q516.988 1398.54 516.988 1394.37 L516.988 1393.42 L512.752 1393.42 M521.247 1391.66 L521.247 1406.46 L516.988 1406.46 L516.988 1402.52 Q515.53 1404.88 513.354 1406.02 Q511.178 1407.13 508.03 1407.13 Q504.048 1407.13 501.687 1404.9 Q499.349 1402.66 499.349 1398.91 Q499.349 1394.53 502.266 1392.31 Q505.206 1390.09 511.016 1390.09 L516.988 1390.09 L516.988 1389.67 Q516.988 1386.73 515.044 1385.14 Q513.122 1383.52 509.627 1383.52 Q507.405 1383.52 505.298 1384.05 Q503.192 1384.58 501.248 1385.65 L501.248 1381.71 Q503.586 1380.81 505.785 1380.37 Q507.984 1379.9 510.067 1379.9 Q515.692 1379.9 518.47 1382.82 Q521.247 1385.74 521.247 1391.66 Z" fill="#000000" fill-rule="nonzero" fill-opacity="1"></path></svg>